<?xml version="1.0" encoding="utf-8"?>
<!-- Generator: Adobe Illustrator 22.0.1, SVG Export Plug-In . SVG Version: 6.00 Build 0)  -->
<svg version="1.1" id="Layer_1" xmlns="http://www.w3.org/2000/svg" xmlns:xlink="http://www.w3.org/1999/xlink" x="0px" y="0px"
	 viewBox="0 0 510 187.2" style="enable-background:new 0 0 510 187.2;" xml:space="preserve">
<style type="text/css">
	.st0{fill:#FFFFFF;}
</style>
<g>
	<path class="st0" d="M252.5,164.3c0,0-1.2,0.9-1.9,0.9c-0.7,0-0.9,2.4,3.9,2.3c4.8,0,4.6-2.3,3.9-2.3c-0.7,0-1.9-0.9-1.9-0.9
		s-1.3-0.5-1.3-4.9c0-4.4,0-18.4,0-18.4s0.2-1.2,0.7-2c0.5-0.8,0.5-2.5-0.3-3.6c-0.8-1.1-0.4-1.2-0.7-1.9c-0.3-0.7-0.7,0-0.7,0
		c-0.2,0.7,0.1,0.8-0.7,1.9c-0.8,1.1-0.8,2.8-0.3,3.6c0.5,0.8,0.7,2,0.7,2s0,14,0,18.4C253.8,163.8,252.5,164.3,252.5,164.3z"/>
	<path class="st0" d="M254.5,167.6C254.5,167.6,254.5,167.6,254.5,167.6c-0.1,0-0.1,0-0.1,0H254.5z"/>
	<path class="st0" d="M260.4,181.5c-0.9,0-1.6,0.3-1.6,0.7s0.7,0.7,1.6,0.7c0.9,0,1.6-0.3,1.6-0.7S261.3,181.5,260.4,181.5z"/>
	<path class="st0" d="M262.9,174.9c0,0-1.3-0.2-1.9,1.1c0,0-0.4,1.3,1.4,1.1c1.8-0.3,0.3,1.4-1.9,1.3c0,0,3.7,1.3,4.4-1.7
		C264.8,175.6,262.9,174.9,262.9,174.9z"/>
	<path class="st0" d="M248.8,181.5c-0.9,0-1.6,0.3-1.6,0.7s0.7,0.7,1.6,0.7c0.9,0,1.6-0.3,1.6-0.7S249.7,181.5,248.8,181.5z"/>
	<path class="st0" d="M248.8,178.5c-2.2,0.1-3.7-1.6-1.9-1.3c1.8,0.3,1.4-1.1,1.4-1.1c-0.7-1.3-1.9-1.1-1.9-1.1s-1.9,0.7-1.9,1.9
		C245.1,179.8,248.8,178.5,248.8,178.5z"/>
	<path class="st0" d="M262,179.8c-2.4-0.3-3.6-0.5-3.4-5.7c0.2-5.1-3.7-5.9-3.7-5.9h-0.5c0,0-3.9,0.8-3.7,5.9s-1,5.4-3.4,5.7
		c-2.4,0.3,0.7,1.4,1.7,1.1s2.5-1.5,3.1-2.5c0.7-1,0.7,1.1,0.1,1.4c-0.7,0.3-0.9,1.9,0.3,3.5c0,0,1.3,1.2,1.3,2.1
		c0,0.9,0.7,1.1,0.7,1.1h0.6c0,0,0.7-0.2,0.7-1.1c0-0.9,1.3-2.1,1.3-2.1c1.1-1.6,0.9-3.2,0.3-3.5c-0.7-0.3-0.6-2.4,0.1-1.4
		c0.7,1,2.2,2.1,3.1,2.5C261.3,181.2,264.4,180.1,262,179.8z M254.5,175.9c-1,0-1.8-1.3-1.8-2.8c0-1.6,0.8-2.8,1.8-2.8
		c1,0,1.8,1.3,1.8,2.8C256.3,174.6,255.5,175.9,254.5,175.9z"/>
	<path class="st0" d="M-0.5,127v1.4l160.4,0.3c-3.1,1.2-9.2,4.2-13.1,9.9c-1.4,1.2-2.4,1.3-3,1.3c-0.7,0-1.1-0.1-1.7-0.2
		c-1.2-0.3-1.7-3.1,0-3.3c1.7-0.2,1.5,1.6,1.5,1.6c0.9-0.8,0.2-3-1.3-2.9c-1.5,0.1-2.7,2.7-1.6,4.5c0.6,0.9,1.8,1.1,2.8,1l0,0
		c0.1,0,0.2,0,0.4,0c0.1,0,0.1,0,0.2,0c0.2,0,0.3,0,0.5-0.1c0.3-0.1,0.5-0.1,0.5-0.1l0.1-0.1c0.2-0.1,0.4-0.2,0.6-0.3
		c-1.7,1.1-5.4,3-6.7-0.1c-1.5-3.4,0.4-7.2-5.4-8.1c0,0-3.2,0.5-3.3,2.8c0,0-0.3,1.1-1.5,1.3c-0.6,0.1-1.1,0.1-1.4,0.4l0.2-0.3
		c-7.2-5.6-12.7-3-17.1,0.3c-1.5,1.1-3.1,1.5-4.5,1c-1.2-0.4-2-1.3-2.4-2.5c-0.3-0.9,0-1.7,0.8-2.3c0.8-0.6,2.2-1,3.5-0.2
		c0.5,0.3,1.2,0.8,1.2,1.4c0,0.6-0.5,1.1-1,1.4c-0.6,0.3-1.5-0.6-1.5-0.7l-0.7-0.6l0.2,1.1c0.5,0.6,1.6,1.4,2.5,0.8
		c0.6-0.4,1.4-1.2,1.4-2.1c0-0.8-0.5-1.5-1.6-2.1c-0.6-0.4-1.3-0.5-2-0.5c-0.9,0-1.7,0.3-2.4,0.8c-1,0.8-1.4,2-1,3.1
		c0.4,1.4,1.5,2.6,2.9,3c1.6,0.6,3.5,0.1,5.3-1.2c1.8-1.3,3.7-2.5,5.8-3c-1,0.5-2.1,1.5-1.8,3.2c0.4,3.1,5.2,3.9,5.7,1.5
		c0.5-2.4-2.4-2.5-1.8-2.1c0.6,0.5,0.9,1.4,0.2,2.1c-0.7,0.7-2.3,0.3-2.7-1.6c-0.2-2.2,0.8-3.1,1.9-3.4c2.6-0.3,5.5,0.5,8.8,3.1
		l0.1-0.1c-0.2,0.3-0.4,0.7-0.4,1.4c0,1.8,0.6,4.5-1.5,4.1c-0.6-0.1-1.7,0.1-2.3-0.8c0,0,0.3,2,2.4,2.1c2.1,0.1,4.2-3.7,4.4-3.9
		c0.2-0.1,1.4-2.1,3.1-2.1c1.7,0,4.2,2.7,5.3,4.6c0.9,1.6,4.7,1.3,7-1c-0.5,0.9-0.9,1.9-1.2,3c-1.7,9,5.5,15.9,13.4,14.9
		c0,0,7.1-0.4,8-6.3c-0.6-4.5-5.8-3.9-6.3-3.7c0,0,3,1.1,3.1,3.7c0.1,2.5-2.7,3.5-4.6,3.5s-5.3-2.6-2.3-3.1c0,0,2.5,0.2,2.3-1.4
		c-0.2-1.6-2.5-1.7-2.8-1.7c-0.3,0-2.5,0.5-3.2,1.5c-0.7,1.1-5.9,1.7-6.1-4.4c-0.2-5.7,2.5-10.2,11.2-15.5
		c-2.2,1.5-5.8,4.8-6.8,10.2c-0.9,3.7,2.1,7.2,5.2,6.9c3.1-0.3,3.8-2.5,3.9-3.6c0.1-1.1-1.3-2.9-2.9-0.8c0,0,1.7-0.6,1.7,0.9
		c0,1.5-1.5,1.9-2.5,1.9c-1,0-4.9-1-3.8-5.7c1.1-4.7,4.3-9.1,11.3-11.6l1.3-0.3c0,0-1.7,1.1-2,3.1c-0.3,2.1,1.7,5.8,5.3,4.8
		c1.3-0.7,0.8-1.5-0.1-1.7c0,0-2.5-0.4-2.3-2.9c0.2-2.5,0.5-3,3.3-3.7l0,0l11.4,0c3.4,1.1,8.9,3.3,12.7,7.1c0,0-7,4.9-8.1,12.4
		c-1.1,7.5,2.3,11.4,5.9,11.4c3.6-0.1,7.1-1.1,8.7-10.7c0.5-5.8-4.5-12.4-4.5-12.4s7.6-6.8,17.8-6.8c0,0-9.5,1.9-10.3,9
		c-0.8,7,5,5.9,5,5.9s3.3-0.4,1.5-4.6c-1.7-4.2,0.6-8.6,10.4-10.4c0,0,13.3-1.3,15.4,6.4c2.1,7.7-3.9,9.2-5.8,9.1
		c-1.9-0.1-3.8-1.9-2.8-3.5c1-1.7,2.2-0.9,3.2,0.1c0,0,1.2-0.3-0.1-1.2c-1.3-0.9-3.9-0.7-4.1,2c-0.2,4.3,5.9,4.4,8.1,2.5
		c2.1-1.9,4.6-3.3,2.9-9.6c0,0,4.9,2.4,1.9,8.6c-3.1,6.2-8.5,4.1-9.5,3.9c-0.9-0.2,4.9,5.7,10.3,1.5c5.4-4.2,2.4-9.1,2-10.6
		c0,0,13.4,15.7-3.2,25.3c0,0-4.8,1.3-6.9,0c-2.1-1.3-1.6-2.4-1.6-2.4s1.7-3.5,3.7-0.9c0,0,0.3,1-1.1,0.8c-0.7-0.1,0.9,0.8,1.3,0.2
		c0.8-1.2,0.1-2.6-2.2-2.4c-0.1,0-0.3,0-0.4,0.1c0.1-0.1,0.2-0.3,0.3-0.3c1.1-1.3,0.7-2.4,0.7-3c0-0.8-2.8-5.4-8.3-4.7
		c-5.5,0.7-12.3,3.6-12.5,11.4c-0.2,7.8,9.5,13.2,16.7,13.1c7.2-0.1,20.5-2.1,23.6-21.2c-0.6-18.7-19.4-24.2-24.9-25.6l28.2,0
		l28.9,0c-5.5,1.4-24.3,6.9-24.9,25.6c3.1,19.2,16.4,21.1,23.6,21.2c7.2,0.1,16.9-5.3,16.7-13.1c-0.2-7.8-7-10.8-12.5-11.4
		c-5.5-0.7-8.3,3.9-8.3,4.7c0,0.6-0.4,1.7,0.8,3c0.1,0,0.2,0.2,0.3,0.3c-0.1,0-0.3-0.1-0.4-0.1c-2.3-0.2-3,1.2-2.2,2.4
		c0.4,0.6,2-0.3,1.3-0.2c-1.5,0.3-1.1-0.8-1.1-0.8c2-2.6,3.7,0.9,3.7,0.9s0.5,1.1-1.6,2.4c-2.1,1.3-6.9,0-6.9,0
		c-16.6-9.6-3.2-25.3-3.2-25.3c-0.4,1.5-3.4,6.4,2,10.6c5.4,4.2,11.2-1.7,10.3-1.5c-0.9,0.2-6.4,2.3-9.5-3.9
		c-3.1-6.2,1.9-8.6,1.9-8.6c-1.7,6.3,0.8,7.6,2.9,9.6c2.1,1.9,8.3,1.9,8.1-2.5c-0.2-2.7-2.8-2.9-4.1-2c-1.3,0.9-0.1,1.2-0.1,1.2
		c1-0.9,2.2-1.7,3.2-0.1c1,1.7-0.9,3.4-2.8,3.5c-1.9,0.1-7.9-1.3-5.8-9.1c2.1-7.7,15.4-6.4,15.4-6.4c9.8,1.9,12.1,6.2,10.4,10.4
		c-1.7,4.2,1.5,4.6,1.5,4.6s5.8,1.1,5-5.9c-0.8-7-10.3-9-10.3-9c10.2,0,17.8,6.8,17.8,6.8s-5,6.6-4.5,12.4
		c1.6,9.6,5.1,10.6,8.7,10.7c3.6,0.1,6.9-3.9,5.9-11.4c-1.1-7.5-8.1-12.4-8.1-12.4c3.9-3.9,9.3-6.1,12.7-7.1l11.4,0l0,0
		c2.7,0.7,3.1,1.3,3.3,3.7c0.2,2.5-2.3,2.9-2.3,2.9c-0.9,0.2-1.3,1-0.1,1.7c3.6,1,5.7-2.7,5.3-4.8c-0.3-2.1-2-3.1-2-3.1l1.3,0.3
		c7,2.5,10.2,6.8,11.3,11.6c1.1,4.7-2.8,5.7-3.8,5.7c-1,0-2.5-0.4-2.5-1.9c0-1.5,1.7-0.9,1.7-0.9c-1.5-2.1-2.9-0.2-2.9,0.8
		c0.1,1.1,0.8,3.3,3.9,3.6c3.1,0.3,6.1-3.2,5.2-6.9c-1-5.4-4.6-8.7-6.8-10.2c8.6,5.4,11.4,9.8,11.2,15.5c-0.3,6.1-5.5,5.5-6.1,4.4
		c-0.7-1.1-2.9-1.5-3.2-1.5c-0.3,0-2.6,0.1-2.8,1.7c-0.2,1.6,2.3,1.4,2.3,1.4c2.9,0.5-0.4,3.1-2.3,3.1c-1.9,0-4.7-0.9-4.6-3.5
		c0.1-2.5,3.1-3.7,3.1-3.7c-0.5-0.1-5.7-0.8-6.3,3.7c0.9,5.9,8,6.3,8,6.3c7.9,1,15.1-5.9,13.4-14.9c-0.3-1.1-0.8-2.1-1.2-3
		c2.3,2.3,6.1,2.6,7,1c1.1-1.9,3.7-4.6,5.3-4.6c1.7,0,2.9,2,3.1,2.1c0.2,0.1,2.3,4,4.4,3.9c2.1-0.1,2.4-2.1,2.4-2.1
		c-0.6,0.9-1.7,0.7-2.3,0.8c-2.1,0.4-1.5-2.3-1.5-4.1c0-0.7-0.1-1.1-0.4-1.4l0.1,0.1c3.3-2.6,6.2-3.3,8.8-3.1
		c1.1,0.3,2.1,1.2,1.9,3.4c-0.3,1.9-1.9,2.3-2.7,1.6c-0.7-0.7-0.4-1.6,0.2-2.1c0.6-0.5-2.3-0.3-1.8,2.1c0.5,2.4,5.3,1.5,5.7-1.5
		c0.2-1.7-0.8-2.6-1.8-3.2c2.1,0.6,4,1.7,5.8,3c1.8,1.3,3.6,1.7,5.3,1.2c1.4-0.5,2.5-1.6,2.9-3c0.3-1.2,0-2.4-1-3.1
		c-0.7-0.5-1.5-0.8-2.4-0.8c-0.7,0-1.4,0.2-2,0.5c-1,0.6-1.6,1.3-1.6,2.1c0,0.9,0.7,1.7,1.4,2.1c0.9,0.6,2-0.2,2.5-0.8l0.1-1.1
		l-0.7,0.6c0,0-0.9,1-1.5,0.7c-0.5-0.3-1-0.9-1-1.4c0-0.6,0.6-1.1,1.2-1.4c1.3-0.8,2.7-0.4,3.5,0.2c0.7,0.6,1,1.4,0.7,2.3
		c-0.3,1.2-1.2,2.1-2.4,2.5c-1.4,0.5-3,0.1-4.5-1c-4.4-3.3-9.9-5.9-17.1-0.3l0.2,0.3c-0.3-0.2-0.8-0.3-1.4-0.4
		c-1.3-0.1-1.5-1.3-1.5-1.3c-0.1-2.3-3.3-2.8-3.3-2.8c-5.8,0.9-3.9,4.7-5.4,8.1c-1.4,3.1-5,1.2-6.7,0.1c0.2,0.1,0.4,0.2,0.6,0.3
		l0.1,0.1c0,0,0.2,0.1,0.5,0.1c0.2,0,0.3,0.1,0.5,0.1c0.1,0,0.1,0,0.2,0c0.1,0,0.2,0,0.4,0l0,0c1,0.1,2.2-0.1,2.8-1
		c1.1-1.7-0.1-4.4-1.6-4.5c-1.5-0.1-2.3,2.1-1.3,2.9c0,0-0.3-1.8,1.5-1.6c1.7,0.2,1.2,3,0,3.3c-0.6,0.2-1,0.2-1.7,0.2
		c-0.6,0-1.6-0.1-3-1.3c-3.9-5.7-10-8.7-13.1-9.9l160.5-0.3V127l-255.5-1.1L-0.5,127z M196.8,147.1c0,3.9-1.9,9.5-6.5,9.4
		s-5.5-6.9-2.9-11.9c2.5-5,6.3-7.1,6.3-7.1S196.8,143.3,196.8,147.1z M194,134.8c0,0-2.9-3.8-9.8-6.2l24.2,0
		C203.5,129.6,198.4,131.5,194,134.8z M229.9,167.5c-1.5,0.6-2.2-0.7-2.2-0.7s-0.6,1.6,1.4,1.9c2,0.3,3.6-1.4,3.3-2.6
		c-0.1-0.4-0.5-0.8-1-1.3c0.8,0.2,1.6,0.3,2.4,0.2c3.9-0.4,7.7-1.6,11.6-8.8c0,0,1.3,6.8-8.2,12.6c-10.7,4-11.3-1.8-11.3-1.8
		s0.1-2.1,2.7-2.1C231.3,165,231.5,166.9,229.9,167.5z M249.3,153.3c-0.7,7.3-2.9,16.3-15.1,19.9c-12.2,3.6-20.2-5.5-20.7-8.1
		c-0.5-2.6-1.4-11.1,9.1-12c5.5-0.5,6.7,4.1,6.7,4.1s0.3,3-2.9,2.7c-3.2-0.3-2.4-2.7-2.4-2.7s-0.8-0.7-1.1,0.1
		c-0.3,0.8,0.4,4.9,4.8,3.2c0.1,0,0.4-0.2,0.6-0.2c0,0-0.1,0.1-0.1,0.1c-0.7,1-0.3,2,0.6,2.9c0.2,0.2,0.5,0.4,0.7,0.6
		c-0.4,0-1.5-0.1-1.9,0.1c-2.1,0.6-3.6,3.5-1.4,5.4c2.2,1.9,8.2,2.2,13.8-1.4c5.5-5,6.5-8.7,6.9-15.1c0.4-6.4-5.1-14.7-5.1-14.7
		S250,146,249.3,153.3z M263.4,156.3c3.9,7.2,7.7,8.4,11.6,8.8c0.8,0.1,1.6,0,2.4-0.2c-0.5,0.4-0.9,0.9-1,1.3
		c-0.3,1.2,1.3,2.9,3.3,2.6c2-0.3,1.4-1.9,1.4-1.9s-0.7,1.3-2.2,0.7c-1.5-0.6-1.3-2.5,1.3-2.5c2.6,0,2.7,2.1,2.7,2.1
		s-0.5,5.8-11.3,1.8C262.1,163.1,263.4,156.3,263.4,156.3z M262,153c0.4,6.4,1.4,10.1,6.9,15.1c5.6,3.6,11.6,3.3,13.8,1.4
		c2.2-1.9,0.7-4.8-1.4-5.4c-0.4-0.1-1.5-0.1-1.9-0.1c0.2-0.2,0.5-0.4,0.7-0.6c0.9-0.8,1.3-1.9,0.6-2.9c0,0-0.1-0.1-0.1-0.1
		c0.2,0.1,0.5,0.2,0.6,0.2c4.3,1.7,5-2.4,4.8-3.2c-0.3-0.8-1.1-0.1-1.1-0.1s0.8,2.4-2.4,2.7c-3.2,0.3-2.9-2.7-2.9-2.7
		s1.3-4.6,6.7-4.1c10.5,0.9,9.6,9.4,9.1,12c-0.5,2.6-8.5,11.7-20.7,8.1c-12.2-3.6-14.4-12.6-15.1-19.9c-0.7-7.3,7.5-15,7.5-15
		S261.6,146.6,262,153z M321.4,144.6c2.5,5,1.7,11.8-2.9,11.9c-4.6,0.1-6.5-5.5-6.5-9.4c0-3.9,3.2-9.6,3.2-9.6
		S318.9,139.6,321.4,144.6z M324.6,128.6c-6.8,2.4-9.8,6.2-9.8,6.2c-4.4-3.4-9.6-5.2-14.4-6.2L324.6,128.6z"/>
	<path class="st0" d="M256.4,21.7c0,0,1.2-0.9,1.9-0.9c0.7,0,0.9-2.4-3.9-2.3c-4.8,0-4.6,2.3-3.9,2.3c0.7,0,1.9,0.9,1.9,0.9
		s1.3,0.5,1.3,4.9c0,4.4,0,18.4,0,18.4s-0.2,1.2-0.7,2c-0.5,0.8-0.5,2.5,0.3,3.6c0.8,1.1,0.5,1.1,0.7,1.9c0,0,0.3,0.7,0.7,0
		c0.3-0.7-0.1-0.8,0.7-1.9c0.8-1.1,0.8-2.8,0.3-3.6c-0.5-0.8-0.7-2-0.7-2s0-14,0-18.4C255.1,22.2,256.4,21.7,256.4,21.7z"/>
	<path class="st0" d="M254.4,18.4C254.4,18.4,254.4,18.4,254.4,18.4c0.1,0,0.1,0,0.1,0H254.4z"/>
	<path class="st0" d="M260.4,4.4c0.9,0,1.6-0.3,1.6-0.7c0-0.4-0.7-0.7-1.6-0.7c-0.9,0-1.6,0.3-1.6,0.7
		C258.8,4.1,259.6,4.4,260.4,4.4z"/>
	<path class="st0" d="M260.4,7.5c2.2-0.1,3.7,1.6,1.9,1.3c-1.8-0.3-1.4,1.1-1.4,1.1c0.7,1.3,1.9,1.1,1.9,1.1s1.9-0.7,1.9-1.9
		C264.1,6.2,260.4,7.5,260.4,7.5z"/>
	<path class="st0" d="M248.8,4.4c0.9,0,1.6-0.3,1.6-0.7c0-0.4-0.7-0.7-1.6-0.7c-0.9,0-1.6,0.3-1.6,0.7
		C247.2,4.1,247.9,4.4,248.8,4.4z"/>
	<path class="st0" d="M246.3,11.1c0,0,1.3,0.2,1.9-1.1c0,0,0.4-1.3-1.4-1.1c-1.8,0.3-0.3-1.4,1.9-1.3c0,0-3.7-1.3-4.4,1.7
		C244.5,10.4,246.3,11.1,246.3,11.1z"/>
	<path class="st0" d="M247.3,6.2c2.4,0.3,3.6,0.5,3.4,5.7c-0.2,5.1,3.7,5.9,3.7,5.9h0.5c0,0,3.9-0.8,3.7-5.9c-0.2-5.1,1-5.4,3.4-5.7
		c2.4-0.3-0.7-1.4-1.7-1.1c-0.9,0.3-2.5,1.5-3.1,2.5c-0.7,1-0.7-1.1-0.1-1.4c0.7-0.3,0.9-1.9-0.3-3.5c0,0-1.3-1.2-1.3-2.1
		c0-0.9-0.7-1.1-0.7-1.1h-0.6c0,0-0.7,0.2-0.7,1.1c0,0.9-1.3,2.1-1.3,2.1c-1.1,1.6-0.9,3.2-0.3,3.5c0.7,0.3,0.6,2.4-0.1,1.4
		c-0.7-1-2.2-2.1-3.1-2.5C248,4.8,244.9,5.9,247.3,6.2z M254.5,10.1c1,0,1.8,1.3,1.8,2.8c0,1.6-0.8,2.8-1.8,2.8
		c-1,0-1.8-1.3-1.8-2.8C252.7,11.4,253.5,10.1,254.5,10.1z"/>
	<path class="st0" d="M348.9,57.4c3.1-1.2,9.2-4.2,13.1-9.9c1.4-1.2,2.4-1.3,3-1.3c0.7,0,1.1,0.1,1.7,0.2c1.2,0.3,1.7,3.1,0,3.3
		c-1.7,0.2-1.5-1.6-1.5-1.6c-0.9,0.8-0.2,3,1.3,2.9c1.5-0.1,2.7-2.7,1.6-4.5c-0.6-0.9-1.8-1.1-2.8-1l0,0c-0.1,0-0.2,0-0.4,0
		c-0.1,0-0.1,0-0.2,0c-0.2,0-0.3,0-0.5,0.1c-0.3,0.1-0.5,0.1-0.5,0.1l-0.1,0.1c-0.2,0.1-0.4,0.2-0.6,0.3c1.7-1.1,5.4-3,6.7,0.1
		c1.5,3.4-0.4,7.2,5.4,8.1c0,0,3.2-0.5,3.3-2.8c0,0,0.3-1.1,1.5-1.3c0.6-0.1,1.1-0.1,1.4-0.4l-0.2,0.3c7.2,5.6,12.7,3,17.1-0.3
		c1.5-1.1,3.1-1.5,4.5-1c1.2,0.4,2,1.3,2.4,2.5c0.3,0.9,0,1.7-0.7,2.3c-0.8,0.6-2.2,1-3.5,0.2c-0.5-0.3-1.2-0.8-1.2-1.4
		c0-0.6,0.5-1.1,1-1.4c0.6-0.3,1.5,0.6,1.5,0.7l0.7,0.6l-0.1-1.1c-0.5-0.6-1.6-1.4-2.5-0.8c-0.6,0.4-1.4,1.2-1.4,2.1
		c0,0.8,0.5,1.5,1.6,2.1c0.6,0.4,1.3,0.5,2,0.5c0.9,0,1.7-0.3,2.4-0.8c1-0.8,1.4-2,1-3.1c-0.4-1.4-1.5-2.6-2.9-3
		c-1.6-0.6-3.5-0.1-5.3,1.2c-1.8,1.3-3.7,2.5-5.8,3c1-0.5,2.1-1.5,1.8-3.2c-0.4-3.1-5.2-3.9-5.7-1.5c-0.5,2.4,2.4,2.5,1.8,2.1
		c-0.6-0.5-0.9-1.4-0.2-2.1c0.7-0.7,2.3-0.3,2.7,1.6c0.2,2.2-0.7,3.1-1.9,3.4c-2.6,0.3-5.5-0.5-8.8-3.1l-0.1,0.1
		c0.2-0.3,0.4-0.7,0.4-1.4c0-1.8-0.6-4.5,1.5-4.1c0.6,0.1,1.7-0.1,2.3,0.8c0,0-0.3-2-2.4-2.1c-2.1-0.1-4.2,3.7-4.4,3.9
		c-0.2,0.1-1.4,2.1-3.1,2.1c-1.7,0-4.2-2.7-5.3-4.6c-0.9-1.6-4.7-1.3-7,1c0.5-0.9,0.9-1.9,1.2-3c1.7-9-5.5-15.9-13.4-14.9
		c0,0-7.1,0.4-8,6.3c0.6,4.5,5.8,3.9,6.3,3.7c0,0-3-1.1-3.1-3.7c-0.1-2.5,2.7-3.5,4.6-3.5c1.9,0,5.3,2.6,2.3,3.1
		c0,0-2.5-0.2-2.3,1.4c0.2,1.6,2.5,1.7,2.8,1.7c0.3,0,2.5-0.5,3.2-1.5c0.7-1.1,5.9-1.7,6.1,4.4c0.2,5.7-2.6,10.2-11.2,15.5
		c2.2-1.6,5.8-4.8,6.8-10.2c0.9-3.7-2.1-7.2-5.2-6.9c-3.1,0.3-3.8,2.5-3.9,3.6c-0.1,1.1,1.3,2.9,2.9,0.8c0,0-1.7,0.6-1.7-0.9
		c0-1.5,1.5-1.9,2.5-1.9c1,0,4.9,1,3.8,5.7c-1.1,4.7-4.3,9.1-11.3,11.6l-1.3,0.3c0,0,1.7-1.1,2-3.1c0.3-2.1-1.7-5.8-5.3-4.8
		c-1.3,0.7-0.8,1.5,0.1,1.7c0,0,2.5,0.4,2.3,2.9c-0.2,2.5-0.5,3-3.3,3.7l0,0l-11.4,0c-3.4-1.1-8.9-3.3-12.7-7.1c0,0,7-4.9,8.1-12.4
		c1.1-7.5-2.3-11.4-5.9-11.4c-3.6,0.1-7.1,1.1-8.7,10.7c-0.5,5.8,4.5,12.4,4.5,12.4s-7.6,6.8-17.8,6.8c0,0,9.5-1.9,10.3-9
		c0.8-7-5-5.9-5-5.9s-3.3,0.4-1.5,4.6c1.7,4.2-0.6,8.6-10.4,10.4c0,0-13.3,1.3-15.4-6.4c-2.1-7.7,3.9-9.2,5.8-9.1
		c1.9,0.1,3.8,1.9,2.8,3.5c-1,1.7-2.2,0.9-3.2-0.1c0,0-1.2,0.3,0.1,1.2c1.3,0.9,3.9,0.7,4.1-2c0.2-4.3-5.9-4.4-8.1-2.5
		c-2.1,1.9-4.6,3.3-2.9,9.6c0,0-4.9-2.4-1.9-8.6c3.1-6.2,8.5-4.1,9.5-3.9c0.9,0.2-4.9-5.7-10.3-1.5c-5.4,4.2-2.4,9.1-2,10.6
		c0,0-13.4-15.7,3.2-25.3c0,0,4.8-1.3,6.9,0c2.1,1.3,1.6,2.4,1.6,2.4s-1.7,3.5-3.7,0.9c0,0-0.3-1,1.1-0.8c0.7,0.1-0.9-0.8-1.3-0.2
		c-0.8,1.2-0.1,2.6,2.2,2.4c0.1,0,0.3,0,0.4-0.1c-0.1,0.1-0.2,0.3-0.3,0.3c-1.1,1.3-0.8,2.4-0.8,3c0,0.8,2.8,5.4,8.3,4.7
		c5.5-0.7,12.3-3.6,12.5-11.4c0.2-7.8-9.5-13.2-16.7-13.1c-7.2,0.1-20.5,2.1-23.6,21.2c0.6,18.7,19.4,24.2,24.9,25.6l-28.9,0
		l-28.2,0c5.5-1.4,24.3-6.9,24.9-25.6c-3.1-19.2-16.4-21.1-23.6-21.2c-7.2-0.1-16.9,5.3-16.7,13.1c0.2,7.8,7,10.8,12.5,11.4
		c5.5,0.7,8.3-3.9,8.3-4.7c0-0.6,0.4-1.7-0.7-3c-0.1,0-0.2-0.2-0.3-0.3c0.1,0,0.3,0.1,0.4,0.1c2.3,0.2,3-1.2,2.2-2.4
		c-0.4-0.6-2,0.3-1.3,0.2c1.5-0.3,1.1,0.8,1.1,0.8c-2,2.6-3.7-0.9-3.7-0.9s-0.5-1.1,1.6-2.4c2.1-1.3,6.9,0,6.9,0
		c16.6,9.6,3.2,25.3,3.2,25.3c0.4-1.5,3.4-6.4-2-10.6c-5.4-4.2-11.2,1.7-10.3,1.5c0.9-0.2,6.4-2.3,9.5,3.9c3.1,6.2-1.9,8.6-1.9,8.6
		c1.7-6.3-0.8-7.6-2.9-9.6c-2.1-1.9-8.3-1.9-8.1,2.5c0.2,2.7,2.8,2.9,4.1,2c1.3-0.9,0.1-1.2,0.1-1.2c-1,0.9-2.2,1.7-3.2,0.1
		c-1-1.7,0.9-3.4,2.8-3.5c1.9-0.1,7.9,1.3,5.8,9.1c-2.1,7.7-15.4,6.4-15.4,6.4c-9.8-1.9-12.1-6.2-10.4-10.4c1.7-4.2-1.5-4.6-1.5-4.6
		s-5.8-1.1-5,5.9c0.8,7,10.3,9,10.3,9c-10.2,0-17.8-6.8-17.8-6.8s5-6.6,4.5-12.4c-1.6-9.6-5.1-10.6-8.7-10.7
		c-3.6-0.1-6.9,3.9-5.9,11.4c1.1,7.5,8.1,12.4,8.1,12.4c-3.9,3.9-9.3,6.1-12.7,7.1l-11.4,0l0,0c-2.7-0.7-3.1-1.3-3.3-3.7
		c-0.2-2.5,2.3-2.9,2.3-2.9c0.9-0.2,1.3-1,0.1-1.7c-3.6-1-5.7,2.7-5.3,4.8c0.3,2.1,2,3.1,2,3.1l-1.3-0.3c-7-2.5-10.2-6.8-11.3-11.6
		c-1.1-4.7,2.8-5.7,3.8-5.7c1,0,2.5,0.4,2.5,1.9c0,1.5-1.7,0.9-1.7,0.9c1.5,2.1,2.9,0.2,2.9-0.8c-0.1-1.1-0.8-3.3-3.9-3.6
		c-3.1-0.3-6.1,3.2-5.2,6.9c1,5.4,4.6,8.7,6.8,10.2c-8.6-5.4-11.4-9.8-11.2-15.5c0.3-6.1,5.5-5.5,6.1-4.4c0.7,1.1,2.9,1.5,3.2,1.5
		c0.3,0,2.6-0.1,2.8-1.7c0.2-1.6-2.3-1.4-2.3-1.4c-2.9-0.5,0.4-3.1,2.3-3.1s4.7,0.9,4.6,3.5c-0.1,2.5-3.1,3.7-3.1,3.7
		c0.5,0.1,5.7,0.8,6.3-3.7c-0.9-5.9-8-6.3-8-6.3c-7.9-1-15.1,5.9-13.4,14.9c0.3,1.1,0.8,2.1,1.2,3c-2.3-2.3-6.1-2.6-7-1
		c-1.1,1.9-3.7,4.6-5.3,4.6c-1.7,0-2.9-2-3.1-2.1c-0.2-0.1-2.3-4-4.4-3.9c-2.1,0.1-2.4,2.1-2.4,2.1c0.6-0.9,1.7-0.7,2.3-0.8
		c2.1-0.4,1.5,2.3,1.5,4.1c0,0.7,0.1,1.1,0.4,1.4l-0.1-0.1c-3.3,2.6-6.2,3.3-8.8,3.1c-1.1-0.3-2.1-1.2-1.9-3.4
		c0.3-1.9,1.9-2.3,2.7-1.6c0.7,0.7,0.4,1.6-0.2,2.1c-0.6,0.5,2.3,0.3,1.8-2.1c-0.5-2.4-5.3-1.5-5.7,1.5c-0.2,1.7,0.8,2.6,1.8,3.2
		c-2.1-0.6-4-1.7-5.8-3c-1.8-1.3-3.6-1.7-5.3-1.2c-1.4,0.5-2.5,1.6-2.9,3c-0.3,1.2,0,2.4,1,3.1c0.7,0.5,1.5,0.8,2.4,0.8
		c0.7,0,1.4-0.2,2-0.5c1-0.6,1.6-1.3,1.6-2.1c0-0.9-0.7-1.7-1.4-2.1c-0.9-0.6-2,0.2-2.5,0.8l-0.2,1.1l0.7-0.6c0,0,0.9-1,1.5-0.7
		c0.5,0.3,1,0.9,1,1.4c0,0.6-0.6,1.1-1.2,1.4c-1.3,0.8-2.7,0.4-3.5-0.2c-0.7-0.6-1-1.4-0.8-2.3c0.3-1.2,1.2-2.1,2.4-2.5
		c1.4-0.5,3-0.1,4.5,1c4.4,3.3,9.9,5.9,17.1,0.3l-0.2-0.3c0.3,0.2,0.8,0.3,1.4,0.4c1.3,0.1,1.5,1.3,1.5,1.3c0.1,2.3,3.3,2.8,3.3,2.8
		c5.8-0.9,3.9-4.7,5.4-8.1c1.4-3.1,5-1.2,6.7-0.1c-0.2-0.1-0.4-0.2-0.6-0.3l-0.1-0.1c0,0-0.2-0.1-0.5-0.1c-0.2,0-0.3-0.1-0.5-0.1
		c-0.1,0-0.1,0-0.2,0c-0.1,0-0.2,0-0.4,0l0,0c-1-0.1-2.2,0.1-2.8,1c-1.1,1.7,0.1,4.4,1.6,4.5c1.5,0.1,2.3-2.1,1.3-2.9
		c0,0,0.3,1.8-1.5,1.6c-1.7-0.2-1.2-3,0-3.3c0.6-0.2,1-0.2,1.7-0.2c0.6,0,1.6,0.1,3,1.3c3.9,5.7,10,8.7,13.1,9.9L-0.5,57.6V59
		L253.9,60L509.4,59v-1.4L348.9,57.4z M278.8,18.5c1.5-0.6,2.2,0.7,2.2,0.7s0.6-1.6-1.4-1.9c-2-0.3-3.6,1.4-3.3,2.6
		c0.1,0.4,0.5,0.8,1,1.3c-0.8-0.2-1.6-0.3-2.4-0.2c-3.9,0.4-7.7,1.6-11.6,8.8c0,0-1.3-6.8,8.2-12.6c10.7-4,11.3,1.8,11.3,1.8
		s-0.1,2.1-2.7,2.1C277.5,21,277.3,19.1,278.8,18.5z M259.5,32.7c0.7-7.3,2.9-16.3,15.1-19.9c12.2-3.6,20.2,5.5,20.7,8.1
		c0.5,2.6,1.4,11.1-9.1,12c-5.5,0.5-6.7-4.1-6.7-4.1s-0.3-3,2.9-2.7c3.2,0.3,2.4,2.7,2.4,2.7s0.8,0.7,1.1-0.1
		c0.3-0.8-0.4-4.9-4.8-3.2c-0.1,0-0.4,0.2-0.6,0.2c0,0,0.1-0.1,0.1-0.1c0.7-1,0.3-2-0.6-2.9c-0.2-0.2-0.5-0.4-0.7-0.6
		c0.4,0,1.5,0.1,1.9-0.1c2.1-0.6,3.6-3.5,1.4-5.4c-2.2-1.9-8.2-2.2-13.8,1.4c-5.5,5-6.5,8.7-6.9,15.1c-0.4,6.4,5.1,14.7,5.1,14.7
		S258.8,40,259.5,32.7z M245.4,29.7c-3.9-7.2-7.7-8.4-11.6-8.8c-0.8-0.1-1.6,0-2.4,0.2c0.5-0.4,0.9-0.9,1-1.3
		c0.3-1.2-1.3-2.9-3.3-2.6c-2,0.3-1.4,1.9-1.4,1.9s0.7-1.3,2.2-0.7c1.5,0.6,1.3,2.5-1.3,2.5c-2.6,0-2.7-2.1-2.7-2.1
		s0.5-5.8,11.3-1.8C246.7,22.9,245.4,29.7,245.4,29.7z M246.8,33c-0.4-6.4-1.4-10.1-6.9-15.1c-5.6-3.6-11.6-3.3-13.8-1.4
		c-2.2,1.9-0.7,4.8,1.4,5.4c0.4,0.1,1.5,0.1,1.9,0.1c-0.3,0.2-0.5,0.4-0.7,0.6c-0.9,0.8-1.3,1.9-0.6,2.9c0,0,0.1,0.1,0.1,0.1
		c-0.2-0.1-0.5-0.2-0.6-0.2c-4.3-1.7-5,2.4-4.8,3.2c0.3,0.8,1.1,0.1,1.1,0.1s-0.8-2.4,2.4-2.7c3.2-0.3,2.9,2.7,2.9,2.7
		s-1.3,4.6-6.7,4.1c-10.5-0.9-9.6-9.4-9.1-12c0.5-2.6,8.5-11.7,20.7-8.1c12.2,3.6,14.4,12.6,15.1,19.9c0.7,7.3-7.5,15-7.5,15
		S247.2,39.4,246.8,33z M187.4,41.4c-2.5-5-1.7-11.8,2.9-11.9c4.6-0.1,6.5,5.5,6.5,9.4c0,3.9-3.2,9.6-3.2,9.6S189.9,46.4,187.4,41.4
		z M184.2,57.3c6.8-2.4,9.7-6.2,9.7-6.2c4.4,3.4,9.6,5.2,14.4,6.2L184.2,57.3z M311.9,38.9c0-3.9,1.9-9.5,6.5-9.4
		c4.6,0.1,5.5,6.9,2.9,11.9c-2.5,5-6.3,7.1-6.3,7.1S311.9,42.7,311.9,38.9z M300.4,57.3c4.8-0.9,10-2.8,14.4-6.2
		c0,0,2.9,3.8,9.8,6.2L300.4,57.3z"/>
	<path class="st0" d="M54.9,107.3c-0.2,0.1-0.3,0.2-0.3,0.3s0.1,0.2,0.4,0.2c0.3,0,0.6,0,1.1,0.1c0.8,0,1.7,0,2.5,0.1
		c0.8,0,1.6,0,2.2,0c0.7,0,1.3,0,1.8,0c0.5,0,0.9,0,1.1,0c0.3,0,0.5,0,0.7-0.1c0.2,0,0.3-0.1,0.3-0.3c0-0.2-0.2-0.2-0.5-0.2
		c-0.3,0-0.6,0-0.9,0s-0.7-0.1-1-0.2c-0.3-0.1-0.5-0.2-0.8-0.3c-0.3-0.1-0.6-0.4-1-0.7s-0.7-0.8-1.1-1.4c-0.4-0.6-0.8-1.3-1.2-2.2
		c-0.5-1.1-1.1-2.4-1.8-3.9c-0.7-1.6-1.5-3.2-2.3-5c-0.8-1.8-1.6-3.5-2.4-5.3c-0.8-1.8-1.5-3.5-2.2-5c-0.7-1.5-1.2-2.8-1.7-3.8
		c-0.5-1.1-0.8-1.7-0.9-2c-0.3-0.6-0.5-1-0.6-1.2C46.1,76.1,46,76,45.8,76c-0.2,0-0.3,0.1-0.4,0.3c-0.1,0.2-0.3,0.6-0.6,1.3
		l-10.9,25.8c-0.4,1.1-1,1.9-1.5,2.6c-0.6,0.7-1.4,1.1-2.5,1.3c-0.2,0-0.4,0-0.7,0.1s-0.5,0-0.7,0c-0.3,0-0.4,0.1-0.4,0.2
		c0,0.2,0.3,0.3,0.9,0.3c0.6,0,1.2,0,1.7,0c0.6,0,1.1,0,1.6,0c0.5,0,1,0,1.3,0c0.4,0,0.6,0,0.7,0c0.1,0,0.3,0,0.6,0c0.3,0,0.6,0,1,0
		c0.4,0,0.7,0,1.1,0c0.4,0,0.7,0,1,0c0.5,0,0.7-0.1,0.7-0.3c0-0.2-0.2-0.2-0.5-0.2h-0.5c-0.4,0-0.8-0.1-1.2-0.3
		c-0.4-0.2-0.6-0.5-0.6-0.9c0-0.8,0.2-1.7,0.7-2.8l2.9-7.4c0.1-0.2,0.3-0.3,0.5-0.3h10.3c0.2,0,0.3,0.1,0.4,0.2l4.5,10.2
		c0.2,0.3,0.2,0.6,0.1,0.8C55.2,107.2,55.1,107.3,54.9,107.3z M49.7,94.2h-9.2c-0.2,0-0.2-0.1-0.1-0.3l4.2-11.2
		c0.2-0.6,0.5-0.6,0.7,0L49.9,94C50,94.2,49.9,94.2,49.7,94.2z"/>
	<path class="st0" d="M75.4,84.7c0-1,0-1.8,0-2.5c0-0.6,0-1.1,0-1.5c0-0.4,0-0.7,0.1-1.1c0.1-0.7,0.2-1.3,0.5-1.6
		c0.2-0.4,0.7-0.6,1.4-0.7c0.3-0.1,0.6-0.1,0.9-0.1c0.3,0,0.5,0,0.7,0c0.3,0,0.4-0.1,0.4-0.2c0-0.2-0.3-0.3-0.8-0.3
		c-0.4,0-0.8,0-1.4,0c-0.6,0-1.1,0-1.7,0c-0.5,0-1,0-1.4,0c-0.4,0-0.7,0-0.7,0c-0.1,0-0.3,0-0.6,0c-0.4,0-0.8,0-1.3,0
		c-0.5,0-1.1,0-1.7,0c-0.6,0-1.2,0-1.7,0c-0.5,0-0.8,0.1-0.8,0.3c0,0.2,0.1,0.2,0.4,0.2c0.2,0,0.5,0,0.8,0c0.3,0,0.6,0,0.8,0.1
		c0.8,0.1,1.3,0.4,1.6,0.7c0.3,0.4,0.4,0.9,0.5,1.6c0,0.3,0.1,0.7,0.1,1.1c0,0.4,0,0.9,0,1.5c0,0.6,0,1.4,0,2.5c0,1,0,2.3,0,3.9V96
		c0,2,0,3.8,0,5.3c0,1.6-0.1,2.8-0.2,3.7c-0.1,0.6-0.2,1.1-0.4,1.5c-0.2,0.4-0.5,0.7-1,0.7c-0.2,0.1-0.5,0.1-0.7,0.1
		c-0.3,0-0.5,0-0.7,0c-0.3,0-0.4,0.1-0.4,0.2c0,0.2,0.3,0.3,0.8,0.3c0.4,0,0.8,0,1.3,0c0.5,0,1,0,1.5-0.1c0.5,0,0.9,0,1.3,0
		c0.4,0,0.6,0,0.7,0c0.7,0,1.4,0,2.2,0c0.8,0,1.7,0,2.7,0.1c1,0,2.2,0.1,3.5,0.1c1.3,0,2.8,0,4.5,0c0.6,0,1.1,0,1.5,0
		c0.4,0,0.6-0.1,0.8-0.2c0.2-0.1,0.3-0.2,0.4-0.3c0.1-0.1,0.2-0.3,0.3-0.6c0.1-0.3,0.2-0.7,0.3-1.1c0.1-0.4,0.2-0.9,0.2-1.3
		c0.1-0.4,0.1-0.8,0.2-1.1c0-0.3,0-0.6,0-0.7c0-0.4-0.1-0.6-0.3-0.6c-0.2,0-0.4,0.2-0.4,0.5c-0.1,0.4-0.2,0.8-0.4,1.3
		c-0.2,0.5-0.5,0.9-0.8,1.2c-0.6,0.6-1.4,1-2.4,1.1c-1,0.1-2.1,0.2-3.4,0.2c-0.9,0-1.7,0-2.4-0.1c-0.7,0-1.2-0.1-1.6-0.2
		c-0.4-0.1-0.8-0.2-1.1-0.3c-0.3-0.1-0.5-0.3-0.7-0.4c-0.4-0.4-0.7-1.3-0.9-2.7c-0.1-1.5-0.2-3.7-0.2-6.8v-7.4
		C75.4,87,75.4,85.7,75.4,84.7z"/>
	<path class="st0" d="M103.8,84.7c0-1,0-1.8,0-2.5c0-0.6,0-1.1,0-1.5c0-0.4,0-0.7,0.1-1.1c0.1-0.7,0.2-1.3,0.5-1.6
		c0.2-0.4,0.7-0.6,1.4-0.7c0.3-0.1,0.6-0.1,0.9-0.1c0.3,0,0.5,0,0.7,0c0.3,0,0.4-0.1,0.4-0.2c0-0.2-0.3-0.3-0.8-0.3
		c-0.4,0-0.8,0-1.4,0c-0.6,0-1.1,0-1.7,0c-0.5,0-1,0-1.4,0c-0.4,0-0.7,0-0.7,0c-0.1,0-0.3,0-0.6,0c-0.4,0-0.8,0-1.3,0
		c-0.5,0-1.1,0-1.7,0c-0.6,0-1.2,0-1.7,0c-0.5,0-0.8,0.1-0.8,0.3c0,0.2,0.1,0.2,0.4,0.2c0.2,0,0.5,0,0.8,0c0.3,0,0.6,0,0.8,0.1
		c0.8,0.1,1.3,0.4,1.6,0.7c0.3,0.4,0.4,0.9,0.5,1.6c0,0.3,0.1,0.7,0.1,1.1c0,0.4,0,0.9,0,1.5c0,0.6,0,1.4,0,2.5c0,1,0,2.3,0,3.9V96
		c0,2,0,3.8,0,5.3c0,1.6-0.1,2.8-0.2,3.7c-0.1,0.6-0.2,1.1-0.4,1.5c-0.2,0.4-0.5,0.7-1,0.7c-0.2,0.1-0.5,0.1-0.7,0.1
		c-0.3,0-0.5,0-0.7,0c-0.3,0-0.4,0.1-0.4,0.2c0,0.2,0.3,0.3,0.8,0.3c0.4,0,0.8,0,1.3,0c0.5,0,1,0,1.5-0.1c0.5,0,0.9,0,1.3,0
		c0.4,0,0.6,0,0.7,0c0.7,0,1.4,0,2.2,0c0.8,0,1.7,0,2.7,0.1c1,0,2.2,0.1,3.5,0.1c1.3,0,2.8,0,4.5,0c0.6,0,1.1,0,1.5,0
		c0.4,0,0.6-0.1,0.8-0.2c0.2-0.1,0.3-0.2,0.4-0.3c0.1-0.1,0.2-0.3,0.3-0.6c0.1-0.3,0.2-0.7,0.3-1.1c0.1-0.4,0.2-0.9,0.2-1.3
		c0.1-0.4,0.1-0.8,0.2-1.1c0-0.3,0-0.6,0-0.7c0-0.4-0.1-0.6-0.3-0.6c-0.2,0-0.4,0.2-0.4,0.5c-0.1,0.4-0.2,0.8-0.4,1.3
		c-0.2,0.5-0.5,0.9-0.8,1.2c-0.6,0.6-1.4,1-2.4,1.1c-1,0.1-2.1,0.2-3.4,0.2c-0.9,0-1.7,0-2.4-0.1c-0.7,0-1.2-0.1-1.6-0.2
		c-0.4-0.1-0.8-0.2-1.1-0.3c-0.3-0.1-0.5-0.3-0.7-0.4c-0.4-0.4-0.7-1.3-0.9-2.7c-0.1-1.5-0.2-3.7-0.2-6.8v-7.4
		C103.8,87,103.8,85.7,103.8,84.7z"/>
	<path class="st0" d="M132.4,78.2c0.1,0,0.5,0,1.1,0c0.6,0,1.3,0,2.1,0c0.7,0,1.4,0,2.1,0c0.7,0,1.1,0,1.3,0.1
		c1.3,0.1,2.1,0.3,2.5,0.6c0.4,0.2,0.7,0.5,0.9,0.9c0.1,0.2,0.2,0.5,0.2,0.8c0,0.3,0,0.5,0,0.7c0,0.4,0.1,0.5,0.4,0.5
		c0.1,0,0.2,0,0.2-0.1c0-0.1,0.1-0.2,0.1-0.3c0-0.1,0.1-0.3,0.1-0.6c0-0.3,0-0.5,0.1-0.8c0-0.3,0.1-0.6,0.1-0.8c0-0.2,0-0.4,0-0.5
		c0.1-0.6,0.1-1,0.2-1.3c0.1-0.3,0.1-0.5,0.1-0.6c0-0.2-0.1-0.4-0.2-0.4c-0.1,0-0.2,0-0.3,0.1c-0.1,0.1-0.2,0.1-0.3,0.1
		c-0.4,0.1-1.1,0.2-2.1,0.2c-0.3,0-1,0-2.1,0c-1.1,0-2.4,0-3.7,0c-1.3,0-2.4,0-3.5,0c-1,0-1.6,0-1.7,0l-2-0.1c-0.5,0-1.1,0-1.7,0
		c-0.6,0-1.2,0-1.7,0c-0.5,0-0.8,0.1-0.8,0.3c0,0.2,0.1,0.2,0.4,0.2c0.2,0,0.5,0,0.8,0c0.3,0,0.6,0,0.8,0.1c0.8,0.1,1.3,0.4,1.6,0.7
		c0.3,0.4,0.4,0.9,0.5,1.6c0,0.3,0.1,0.7,0.1,1.1c0,0.4,0,0.9,0,1.5c0,0.6,0,1.4,0,2.5c0,1,0,2.3,0,3.9V96c0,2,0,3.8,0,5.3
		c0,1.6-0.1,2.8-0.2,3.7c-0.1,0.6-0.2,1.1-0.4,1.5c-0.2,0.4-0.5,0.7-1,0.7c-0.2,0.1-0.5,0.1-0.7,0.1c-0.3,0-0.5,0-0.7,0
		c-0.3,0-0.4,0.1-0.4,0.2c0,0.2,0.3,0.3,0.8,0.3c0.4,0,0.8,0,1.3,0c0.5,0,1,0,1.5,0c0.5,0,0.9,0,1.3,0c0.4,0,0.6,0,0.6,0
		c0.4,0,0.8,0,1.4,0c0.6,0,1.4,0,2.3,0.1c0.9,0,2.1,0.1,3.4,0.1c1.3,0,2.9,0,4.7,0c0.5,0,0.9,0,1.2,0c0.3,0,0.5-0.1,0.7-0.1
		c0.2-0.1,0.3-0.2,0.4-0.3c0.1-0.1,0.2-0.3,0.3-0.6c0.1-0.2,0.1-0.5,0.2-1c0.1-0.4,0.1-0.8,0.2-1.3c0.1-0.4,0.1-0.8,0.2-1.2
		c0-0.3,0.1-0.6,0.1-0.6c0-0.1,0-0.3,0-0.4c0-0.1-0.1-0.2-0.3-0.2c-0.2,0-0.3,0.2-0.4,0.6c-0.2,0.9-0.4,1.5-0.7,2
		c-0.3,0.5-0.8,0.8-1.4,1c-0.6,0.2-1.4,0.4-2.3,0.4c-0.9,0-1.7,0.1-2.3,0.1c-1.2,0-2.1,0-2.8-0.1c-0.7-0.1-1.3-0.2-1.7-0.5
		c-0.4-0.2-0.7-0.6-0.8-1c-0.1-0.4-0.2-1-0.3-1.7c0-0.2,0-0.7,0-1.3c0-0.6,0-1.3,0-2.1s0-1.5,0-2.2c0-0.7,0-1.2,0-1.6v-3.7
		c0-0.2,0.1-0.3,0.3-0.3c0.2,0,0.6,0,1.2,0c0.6,0,1.3,0,2,0c0.7,0,1.4,0,2.1,0.1c0.7,0,1.2,0.1,1.5,0.1c0.9,0.1,1.5,0.3,1.9,0.6
		c0.3,0.3,0.5,0.6,0.6,0.9c0.1,0.3,0.2,0.5,0.2,0.7c0,0.2,0,0.4,0,0.6c0,0.2,0.1,0.4,0.3,0.4c0.2,0,0.3-0.1,0.3-0.3
		c0-0.2,0-0.4,0-0.5c0-0.1,0-0.2,0-0.4c0-0.2,0-0.4,0-0.7c0-0.3,0-0.5,0-0.8c0-0.3,0-0.5,0.1-0.7c0.1-0.7,0.1-1.2,0.2-1.6
		c0.1-0.4,0.1-0.6,0.1-0.7c0-0.2-0.1-0.3-0.2-0.3c-0.1,0-0.4,0.2-0.7,0.5c-0.2,0.2-0.5,0.4-0.9,0.4c-0.4,0.1-0.8,0.1-1.4,0.2
		c-0.3,0-0.8,0-1.6,0.1c-0.8,0-1.6,0-2.4,0c-0.8,0-1.6,0-2.3,0c-0.7,0-1.1,0-1.3,0c-0.2,0-0.3-0.1-0.3-0.4V78.6
		C132.2,78.4,132.3,78.2,132.4,78.2z"/>
	<path class="st0" d="M160.8,80.3c0.9-0.6,1.8-1.1,2.7-1.5s1.8-0.7,2.7-0.8c0.9-0.2,1.7-0.3,2.5-0.4c0.8-0.1,1.6-0.1,2.4-0.1
		c1.5,0,2.9,0.1,4.2,0.3c1.3,0.2,2.4,0.5,3.3,0.8c0.9,0.3,1.7,0.7,2.4,1.1c0.6,0.4,1.1,0.8,1.4,1.2c0.4,0.5,0.6,1,0.7,1.5
		c0.1,0.5,0.2,0.9,0.3,1.2c0.1,0.4,0.2,0.6,0.3,0.6c0.2,0,0.3-0.1,0.3-0.2c0.1-0.1,0.1-0.4,0.1-0.7c0-1,0-1.9,0-2.6
		c0-0.7,0.1-1.3,0.1-1.7c0-0.4,0.1-0.8,0.1-1c0-0.2,0-0.4,0-0.6c0-0.1,0-0.2-0.1-0.2c-0.1-0.1-0.2-0.1-0.5-0.1c-0.6,0-1.3-0.1-2-0.1
		c-0.7-0.1-1.4-0.2-1.9-0.3c-0.2,0-0.6-0.1-1.1-0.2c-0.5-0.1-1.1-0.2-1.8-0.2c-0.7-0.1-1.4-0.2-2.2-0.2c-0.8-0.1-1.5-0.1-2.3-0.1
		c-0.9,0-1.9,0-2.9,0.1c-1,0.1-2.1,0.2-3.2,0.4c-1.1,0.2-2.2,0.4-3.3,0.8c-1.1,0.3-2.2,0.8-3.3,1.4c-1.1,0.6-2.1,1.3-3,2.2
		c-1,0.9-1.8,1.9-2.6,3c-0.7,1.1-1.3,2.4-1.7,3.8c-0.4,1.4-0.6,2.9-0.6,4.6c0,1.3,0.2,2.5,0.5,3.7c0.3,1.2,0.7,2.3,1.3,3.3
		s1.1,1.9,1.8,2.7c0.7,0.8,1.4,1.5,2.1,2.1c1.3,1,2.7,1.8,4.2,2.4c1.5,0.6,2.9,1,4.3,1.3c1.4,0.3,2.8,0.5,4,0.6
		c1.2,0.1,2.3,0.1,3.3,0.1c0.7,0,1.5,0,2.3-0.1c0.8-0.1,1.7-0.2,2.6-0.3s1.8-0.3,2.7-0.6c0.9-0.2,1.7-0.5,2.5-0.9
		c0.1-0.1,0.2-0.2,0.3-0.2c0.1-0.1,0.2-0.2,0.2-0.3c0-0.2,0.1-0.4,0.1-0.6c0-0.3,0-0.6,0-1.1v-4.7c0-0.9,0-1.7,0-2.3
		c0-0.7,0-1.3,0.1-2c0.1-0.7,0.2-1.3,0.5-1.6c0.2-0.4,0.7-0.6,1.3-0.7c0.3-0.1,0.5-0.1,0.7-0.1c0.2,0,0.3,0,0.5,0
		c0.3,0,0.4-0.1,0.4-0.2c0-0.2-0.3-0.3-0.8-0.3c-0.4,0-0.8,0-1.3,0c-0.5,0-1,0-1.5,0c-0.5,0-0.9,0-1.3,0c-0.4,0-0.6,0-0.6,0
		c-0.1,0-0.3,0-0.6,0c-0.4,0-0.8,0-1.3,0c-0.5,0-1.1,0-1.7,0c-0.6,0-1.2,0-1.7,0c-0.5,0-0.8,0.1-0.8,0.3c0,0.2,0.1,0.2,0.4,0.2
		c0.2,0,0.5,0,0.8,0c0.3,0,0.6,0,0.8,0.1c0.5,0.1,0.9,0.2,1.2,0.4c0.3,0.2,0.5,0.4,0.6,0.7c0.1,0.3,0.2,0.7,0.3,1.2
		c0,0.5,0.1,1.2,0.1,2v7.1c0,0.7-0.3,1.1-1,1.5c-0.3,0.2-0.7,0.3-1.1,0.4c-0.4,0.1-0.9,0.2-1.4,0.3c-0.5,0.1-1,0.1-1.5,0.1
		c-0.5,0-1,0-1.4,0c-2.2,0-4.4-0.3-6.5-1c-2.1-0.7-4.1-1.8-6.1-3.4c-0.4-0.4-0.9-0.9-1.5-1.6c-0.6-0.7-1.2-1.5-1.7-2.5
		s-1-2.1-1.3-3.3c-0.4-1.2-0.6-2.6-0.6-4.1c0-2.4,0.4-4.6,1.3-6.4C158.3,82.7,159.4,81.3,160.8,80.3z"/>
	<path class="st0" d="M217.1,88.7c0.9-1.6,1.3-3.1,1.3-4.7c0-0.7-0.1-1.4-0.4-2c-0.2-0.6-0.5-1.1-0.9-1.6c-0.3-0.5-0.7-0.9-1.1-1.2
		c-0.4-0.3-0.7-0.6-1-0.8c-1.3-0.8-2.7-1.3-4.2-1.5c-1.5-0.2-3-0.3-4.6-0.3c-0.4,0-0.9,0-1.4,0c-0.6,0-1.2,0-1.7,0
		c-0.6,0-1.1,0-1.6,0c-0.5,0-0.8,0-0.9,0c-0.1,0-0.3,0-0.6,0c-0.4,0-0.8,0-1.3,0c-0.5,0-1.1,0-1.7,0c-0.6,0-1.2,0-1.7,0
		c-0.5,0-0.8,0.1-0.8,0.3c0,0.2,0.1,0.2,0.4,0.2c0.2,0,0.5,0,0.8,0c0.3,0,0.6,0,0.8,0.1c0.8,0.1,1.3,0.4,1.6,0.7
		c0.3,0.4,0.4,0.9,0.5,1.6c0,0.3,0.1,0.7,0.1,1.1c0,0.4,0,0.9,0,1.5c0,0.6,0,1.4,0,2.5c0,1,0,2.3,0,3.9V96c0,2,0,3.8,0,5.3
		c0,1.6-0.1,2.8-0.2,3.7c-0.1,0.6-0.2,1.1-0.4,1.5c-0.2,0.4-0.5,0.7-1,0.7c-0.2,0.1-0.5,0.1-0.7,0.1c-0.3,0-0.5,0-0.7,0
		c-0.3,0-0.4,0.1-0.4,0.2c0,0.2,0.3,0.3,0.8,0.3c0.4,0,0.8,0,1.3,0c0.5,0,1,0,1.5,0c0.5,0,1.1,0,1.7-0.1c0.1,0,0.3,0,0.6,0
		c0.4,0,0.8,0,1.4,0c0.6,0,1.2,0,1.8,0s1.3,0,2,0c0.5,0,0.8-0.1,0.8-0.3c0-0.2-0.1-0.2-0.4-0.2c-0.2,0-0.6,0-1,0
		c-0.4,0-0.8-0.1-1.2-0.1c-0.7-0.1-1.2-0.3-1.4-0.7c-0.2-0.4-0.4-0.9-0.4-1.5c-0.1-0.9-0.2-2.1-0.2-3.7c0-1.6,0-3.3,0-5.3v-1
		c0-0.2,0.1-0.3,0.3-0.3l5.9,0.1c0.2,0,0.4,0.1,0.6,0.2c0.2,0.3,0.5,0.6,0.9,1.1c0.4,0.5,0.8,1,1.3,1.5c0.5,0.6,1,1.1,1.5,1.7
		c0.5,0.6,1,1.2,1.5,1.8c1.4,1.6,2.5,2.9,3.5,3.9c1,1,1.9,1.8,3,2.2c0.6,0.3,1.3,0.5,2,0.6c0.7,0.1,1.8,0.2,3.1,0.2h3.4
		c0.4,0,0.8,0,0.9-0.1c0.2,0,0.2-0.1,0.2-0.3c0-0.2-0.1-0.2-0.4-0.2c-0.2,0-0.4,0-0.7,0s-0.7,0-1.1-0.1c-0.6-0.1-1.4-0.3-2.4-0.7
		c-1-0.4-2.1-1.1-3.5-2.3c-1.4-1.3-2.9-2.9-4.6-4.7c-1.6-1.8-3.4-3.8-5.4-6C214.8,91.9,216.3,90.3,217.1,88.7z M213.6,90.2
		c-0.6,1.1-1.3,1.9-2.1,2.4c-0.5,0.3-1.1,0.5-1.8,0.6c-0.6,0.1-1.2,0.1-1.8,0.1c-1.1,0-2.1-0.1-3-0.2c-1-0.1-1.6-0.3-2-0.5
		c-0.2-0.1-0.3-0.3-0.3-0.5V78.7c0-0.2,0.1-0.4,0.4-0.5c0.3-0.1,0.7-0.1,1.2-0.2c0.6-0.1,1.2-0.1,2-0.1c2.6,0,4.6,0.7,6.1,2.2
		c1.5,1.5,2.2,3.5,2.2,6.1C214.4,87.8,214.1,89.1,213.6,90.2z"/>
	<path class="st0" d="M234.4,103.2c1.5,1.6,3.4,2.9,5.8,3.9c2.3,1,5.2,1.5,8.5,1.5c2.9,0,5.5-0.5,7.9-1.3c2.4-0.9,4.4-2.1,6-3.7
		s2.9-3.3,3.9-5.4c0.9-2.1,1.4-4.3,1.4-6.6c0-2.4-0.5-4.6-1.4-6.5c-1-1.9-2.3-3.6-4-4.9c-1.7-1.3-3.7-2.4-6-3.1
		c-2.3-0.7-4.8-1.1-7.5-1.1c-2.2,0-4.2,0.2-6,0.7c-1.8,0.5-3.4,1.1-4.8,2c-1.4,0.8-2.6,1.8-3.6,2.9c-1,1.1-1.8,2.2-2.5,3.4
		c-0.7,1.2-1.2,2.4-1.5,3.7c-0.3,1.2-0.5,2.4-0.5,3.5c0,1.9,0.4,3.8,1.1,5.7C231.8,99.9,232.9,101.6,234.4,103.2z M235.7,85.1
		c0.7-1.7,1.7-3.1,2.9-4.3c1.2-1.1,2.7-2,4.4-2.6c1.7-0.6,3.6-0.9,5.6-0.9c1.9,0,3.7,0.3,5.5,1c1.8,0.7,3.3,1.6,4.6,2.9
		c1.3,1.3,2.4,2.9,3.2,4.8c0.8,1.9,1.2,4.1,1.2,6.6c0,3-0.5,5.5-1.5,7.3c-1,1.9-2.2,3.3-3.5,4.3c-1.4,1-2.8,1.7-4.3,2.1
		c-1.5,0.3-2.8,0.5-3.9,0.5c-2.2,0-4.2-0.4-6-1.1c-1.9-0.7-3.5-1.8-4.9-3.2c-1.4-1.4-2.5-3.1-3.3-5c-0.8-2-1.2-4.2-1.2-6.6
		C234.6,88.8,235,86.8,235.7,85.1z"/>
	<path class="st0" d="M310.4,87.1c0.4-0.6,0.8-1.2,1-1.9c0.3-0.7,0.4-1.5,0.4-2.3c0-0.5-0.1-1.1-0.4-1.8s-0.7-1.4-1.5-2
		c-0.7-0.7-1.7-1.2-2.9-1.7s-2.8-0.7-4.8-0.7c-1.1,0-2.1,0-3,0.1s-1.6,0.1-2.2,0.1c-0.1,0-0.3,0-0.6,0c-0.4,0-0.8,0-1.3,0
		c-0.5,0-1.1,0-1.7,0c-0.6,0-1.2,0-1.7,0c-0.5,0-0.8,0.1-0.8,0.3c0,0.2,0.1,0.2,0.4,0.2c0.2,0,0.5,0,0.8,0c0.3,0,0.6,0,0.8,0.1
		c0.8,0.1,1.3,0.4,1.6,0.7c0.3,0.4,0.4,0.9,0.5,1.6c0,0.3,0.1,0.7,0.1,1.1c0,0.4,0,0.9,0,1.5c0,0.6,0,1.4,0,2.5c0,1,0,2.3,0,3.9V96
		c0,2,0,3.8,0,5.3c0,1.6-0.1,2.8-0.2,3.7c-0.1,0.6-0.2,1.1-0.4,1.5c-0.2,0.4-0.5,0.7-1,0.7c-0.2,0.1-0.5,0.1-0.7,0.1s-0.5,0-0.7,0
		c-0.3,0-0.4,0.1-0.4,0.2c0,0.2,0.3,0.3,0.8,0.3c0.4,0,0.8,0,1.3,0c0.5,0,1,0,1.5,0c0.5,0,0.9,0,1.3,0s0.6,0,0.6,0c0.1,0,0.4,0,1,0
		s1.2,0,1.9,0.1c0.7,0,1.4,0.1,2.1,0.1c0.7,0,1.1,0,1.4,0c2,0,3.8-0.3,5.4-0.8c1.5-0.5,2.8-1.2,3.8-2.1c1-0.9,1.8-1.8,2.3-2.9
		c0.5-1.1,0.8-2.2,0.8-3.3c0-1.2-0.3-2.3-0.8-3.3c-0.5-1-1.2-1.8-2-2.6c-0.8-0.7-1.7-1.3-2.7-1.8c-1-0.5-1.9-0.9-2.8-1.1
		c0.6-0.5,1.1-1,1.7-1.5C309.5,88.2,309.9,87.7,310.4,87.1z M309.1,94.5c0.6,0.7,1.1,1.4,1.4,2.2c0.4,0.7,0.6,1.5,0.7,2.2
		c0.1,0.7,0.2,1.4,0.2,2c0,1.2-0.2,2.1-0.7,2.9c-0.5,0.8-1,1.4-1.7,1.8c-0.7,0.4-1.4,0.8-2.2,0.9c-0.8,0.2-1.5,0.3-2.1,0.3
		c-0.2,0-0.5,0-0.8,0c-0.3,0-0.7,0-1.1-0.1c-0.4,0-0.8-0.1-1.2-0.2c-0.4-0.1-0.8-0.2-1.1-0.3c-0.4-0.2-0.7-0.3-0.9-0.5
		c-0.2-0.2-0.3-0.4-0.5-0.6c-0.1-0.2-0.2-0.5-0.2-0.9c0-0.3-0.1-0.8-0.1-1.3c0-0.2,0-0.6,0-1.2c0-0.7,0-1.4,0-2.3c0-0.9,0-1.8,0-2.8
		c0-1,0-1.9,0-2.7v-2.4c0-0.2,0.1-0.3,0.3-0.3s0.5,0,0.8,0s0.7,0,1.1,0s0.7,0,1.1,0c0.3,0,0.6,0,0.7,0.1c0.6,0.1,1.2,0.2,1.8,0.3
		c0.6,0.1,1.3,0.4,2.2,0.9C307.7,93.1,308.5,93.8,309.1,94.5z M307.7,87.3c-0.3,0.7-0.7,1.3-1.2,1.8c-0.3,0.2-0.5,0.4-0.7,0.6
		c-0.2,0.1-0.5,0.2-0.8,0.3s-0.7,0.1-1.1,0.1c-0.4,0-1,0-1.7,0c-0.9,0-1.6,0-2-0.1c-0.4,0-0.8-0.1-0.9-0.1c-0.2-0.1-0.3-0.2-0.3-0.5
		V78.4c0-0.2,0.2-0.4,0.6-0.5c0.4-0.1,0.8-0.1,1.2-0.2c0.4,0,0.8,0,1.1,0c1.2,0,2.2,0.2,3,0.6c0.8,0.4,1.5,1,2,1.6
		c0.5,0.7,0.9,1.4,1.1,2.3c0.2,0.9,0.4,1.7,0.4,2.6C308.2,85.8,308,86.5,307.7,87.3z"/>
	<path class="st0" d="M329.3,84.7c0-1,0-1.8,0-2.5c0-0.6,0-1.1,0-1.5c0-0.4,0-0.7,0.1-1.1c0.1-0.7,0.2-1.3,0.5-1.7
		c0.2-0.4,0.7-0.6,1.3-0.7c0.3-0.1,0.5-0.1,0.7-0.1c0.2,0,0.3,0,0.5,0c0.3,0,0.4-0.1,0.4-0.2c0-0.2-0.3-0.3-0.8-0.3
		c-0.4,0-0.8,0-1.3,0c-0.5,0-1,0-1.5,0c-0.5,0-0.9,0-1.3,0c-0.4,0-0.6,0-0.7,0s-0.3,0-0.7,0c-0.4,0-0.9,0-1.4,0c-0.5,0-1.1,0-1.7,0
		c-0.6,0-1.2,0-1.7,0c-0.5,0-0.8,0.1-0.8,0.3c0,0.2,0.1,0.2,0.4,0.2c0.2,0,0.5,0,0.8,0c0.3,0,0.6,0,0.8,0.1c0.8,0.1,1.3,0.4,1.6,0.7
		c0.3,0.4,0.4,0.9,0.5,1.6c0,0.3,0.1,0.7,0.1,1.1c0,0.4,0,0.9,0,1.5c0,0.6,0,1.4,0,2.5c0,1,0,2.3,0,3.9v6.1c0,1.5,0.1,2.9,0.3,4
		c0.2,1.1,0.5,2.1,0.9,3c0.4,0.9,0.8,1.6,1.3,2.2c0.5,0.6,1.1,1.2,1.6,1.7c0.9,0.7,1.8,1.2,2.8,1.6c1,0.4,1.9,0.7,2.9,0.9
		c0.9,0.2,1.8,0.3,2.5,0.4c0.8,0,1.3,0.1,1.8,0.1c0.7,0,1.5,0,2.3-0.1c0.8-0.1,1.6-0.2,2.4-0.4c0.8-0.2,1.7-0.5,2.6-0.9
		s1.8-0.9,2.6-1.6c1-0.7,1.7-1.6,2.3-2.6c0.6-1,1-2,1.3-3.1s0.5-2.2,0.6-3.4c0.1-1.1,0.1-2.3,0.1-3.4v-4.4c0-1.6,0-2.9,0-3.9
		c0-1,0-1.8,0-2.5c0-0.6,0-1.1,0-1.5c0-0.4,0-0.7,0.1-1.1c0.1-0.7,0.2-1.3,0.5-1.6c0.2-0.4,0.7-0.6,1.3-0.7c0.3-0.1,0.5-0.1,0.7-0.1
		c0.2,0,0.3,0,0.5,0c0.3,0,0.4-0.1,0.4-0.2c0-0.2-0.3-0.3-0.8-0.3c-0.4,0-0.7,0-1.2,0c-0.4,0-0.8,0-1.2,0c-0.4,0-0.7,0-1,0
		c-0.3,0-0.5,0-0.6,0c-0.1,0-0.3,0-0.6,0c-0.3,0-0.7,0-1.2,0c-0.5,0-1,0-1.6,0c-0.6,0-1.1,0-1.7,0c-0.5,0-0.8,0.1-0.8,0.3
		c0,0.2,0.1,0.2,0.4,0.2c0.2,0,0.5,0,0.8,0c0.3,0,0.6,0,0.8,0.1c0.8,0.1,1.3,0.4,1.6,0.7c0.3,0.4,0.4,0.9,0.5,1.6
		c0,0.3,0.1,0.7,0.1,1.1c0,0.4,0,0.9,0,1.5c0,0.6,0,1.4,0,2.5c0,1,0,2.3,0,3.9v5.2c0,2.2-0.2,4.1-0.6,5.8c-0.4,1.7-1.1,3.2-2.2,4.4
		c-0.9,0.9-2,1.6-3.3,2.2c-1.3,0.6-2.7,0.8-4.2,0.8c-1.4,0-2.6-0.1-3.8-0.4c-1.1-0.3-2.3-0.9-3.5-1.9c-0.5-0.4-1-0.9-1.4-1.5
		c-0.4-0.6-0.8-1.3-1.2-2.1c-0.3-0.8-0.6-1.8-0.7-2.8s-0.3-2.4-0.3-3.9v-5.8C329.3,87,329.3,85.7,329.3,84.7z"/>
	<path class="st0" d="M372.1,78.3l7.4,0.1c0.9,0,1.7,0.2,2.2,0.5c0.5,0.3,0.9,0.6,1.1,0.9c0.2,0.3,0.3,0.6,0.3,0.9
		c0.1,0.3,0.1,0.5,0.1,0.7c0,0.3,0.1,0.5,0.3,0.5c0.1,0,0.2,0,0.3-0.1c0-0.1,0.1-0.2,0.1-0.3c0-0.1,0.1-0.3,0.1-0.6
		c0-0.3,0-0.5,0.1-0.8c0-0.3,0.1-0.6,0.1-0.8c0-0.2,0-0.4,0-0.5c0.1-0.6,0.1-1,0.2-1.3c0.1-0.3,0.1-0.5,0.1-0.6
		c0-0.2-0.1-0.4-0.3-0.4c-0.1,0-0.2,0-0.3,0.1c-0.1,0.1-0.2,0.1-0.4,0.2c-0.2,0.1-0.5,0.1-0.9,0.1c-0.4,0-0.8,0-1.2,0.1
		c-0.2,0-0.6,0-1.2,0c-0.6,0-1.3,0-2.2,0c-0.8,0-1.7,0-2.6,0s-1.8,0-2.6,0c-0.8,0-1.5,0-2.1,0c-0.6,0-0.9,0-1.1,0l-2-0.1
		c-0.5,0-1.1,0-1.7,0c-0.6,0-1.2,0-1.7,0c-0.5,0-0.8,0.1-0.8,0.3c0,0.2,0.1,0.2,0.4,0.2c0.2,0,0.5,0,0.8,0c0.3,0,0.6,0,0.8,0.1
		c0.8,0.1,1.3,0.4,1.6,0.7c0.3,0.4,0.4,0.9,0.5,1.6c0,0.3,0.1,0.7,0.1,1.1c0,0.4,0,0.9,0,1.5c0,0.6,0,1.4,0,2.5c0,1,0,2.3,0,3.9V96
		c0,2,0,3.8,0,5.3c0,1.6-0.1,2.8-0.2,3.7c-0.1,0.6-0.2,1.1-0.4,1.5c-0.2,0.4-0.5,0.7-1,0.7c-0.2,0.1-0.5,0.1-0.7,0.1s-0.5,0-0.7,0
		c-0.3,0-0.4,0.1-0.4,0.2c0,0.2,0.3,0.3,0.8,0.3c0.4,0,0.8,0,1.3,0c0.5,0,1,0,1.5,0c0.5,0,0.9,0,1.3,0c0.4,0,0.6,0,0.6,0
		s0.3,0,0.6,0c0.4,0,0.8,0,1.4,0c0.6,0,1.2,0,1.8,0s1.3,0,2,0c0.5,0,0.8-0.1,0.8-0.3c0-0.2-0.1-0.2-0.4-0.2c-0.2,0-0.6,0-1,0
		c-0.4,0-0.8-0.1-1.2-0.1c-0.7-0.1-1.2-0.3-1.4-0.7c-0.2-0.4-0.4-0.9-0.4-1.5c-0.1-0.9-0.2-2.1-0.2-3.7c0-1.6,0-3.3,0-5.3v-3.5
		c0-0.2,0.1-0.4,0.3-0.4c0.2,0,0.6,0,1.3,0c0.7,0,1.4,0,2.2,0c0.8,0,1.5,0,2.3,0c0.7,0,1.2,0,1.5,0.1c0.7,0.1,1.3,0.3,1.7,0.6
		c0.4,0.3,0.7,0.6,0.8,0.9c0.1,0.2,0.2,0.5,0.2,0.8c0,0.3,0.1,0.5,0.1,0.7c0,0.2,0.1,0.4,0.3,0.4c0.2,0,0.3-0.1,0.3-0.2
		c0-0.2,0-0.3,0-0.5c0-0.1,0-0.2,0-0.5c0-0.2,0-0.5,0-0.7c0-0.3,0-0.6,0-0.8c0-0.3,0-0.5,0.1-0.7c0.1-0.7,0.1-1.2,0.2-1.6
		c0.1-0.4,0.1-0.6,0.1-0.7c0-0.2-0.1-0.3-0.2-0.3c-0.1,0-0.2,0-0.3,0.1c-0.1,0.1-0.2,0.2-0.3,0.3c-0.2,0.3-0.5,0.5-0.8,0.5
		c-0.3,0.1-0.8,0.2-1.4,0.2c-0.4,0-0.7,0-1.1,0c-0.3,0-0.7,0-1.1,0l-6.1,0c-0.2,0-0.3-0.1-0.3-0.4V78.7
		C371.7,78.4,371.8,78.3,372.1,78.3z"/>
	<path class="st0" d="M400.5,78.3l7.4,0.1c0.9,0,1.7,0.2,2.2,0.5c0.5,0.3,0.9,0.6,1.1,0.9c0.2,0.3,0.3,0.6,0.3,0.9
		c0.1,0.3,0.1,0.5,0.1,0.7c0,0.3,0.1,0.5,0.3,0.5c0.1,0,0.2,0,0.3-0.1c0-0.1,0.1-0.2,0.1-0.3c0-0.1,0.1-0.3,0.1-0.6
		c0-0.3,0-0.5,0.1-0.8c0-0.3,0.1-0.6,0.1-0.8c0-0.2,0-0.4,0-0.5c0.1-0.6,0.1-1,0.2-1.3c0.1-0.3,0.1-0.5,0.1-0.6
		c0-0.2-0.1-0.4-0.3-0.4c-0.1,0-0.2,0-0.3,0.1c-0.1,0.1-0.2,0.1-0.4,0.2c-0.2,0.1-0.5,0.1-0.9,0.1c-0.4,0-0.8,0-1.2,0.1
		c-0.2,0-0.6,0-1.2,0c-0.6,0-1.3,0-2.2,0c-0.8,0-1.7,0-2.6,0s-1.8,0-2.6,0c-0.8,0-1.5,0-2.1,0c-0.6,0-0.9,0-1.1,0l-2-0.1
		c-0.5,0-1.1,0-1.7,0c-0.6,0-1.2,0-1.7,0c-0.5,0-0.8,0.1-0.8,0.3c0,0.2,0.1,0.2,0.4,0.2c0.2,0,0.5,0,0.8,0c0.3,0,0.6,0,0.8,0.1
		c0.8,0.1,1.3,0.4,1.6,0.7c0.3,0.4,0.4,0.9,0.5,1.6c0,0.3,0.1,0.7,0.1,1.1c0,0.4,0,0.9,0,1.5c0,0.6,0,1.4,0,2.5c0,1,0,2.3,0,3.9V96
		c0,2,0,3.8,0,5.3c0,1.6-0.1,2.8-0.2,3.7c-0.1,0.6-0.2,1.1-0.4,1.5c-0.2,0.4-0.5,0.7-1,0.7c-0.2,0.1-0.5,0.1-0.7,0.1s-0.5,0-0.7,0
		c-0.3,0-0.4,0.1-0.4,0.2c0,0.2,0.3,0.3,0.8,0.3c0.4,0,0.8,0,1.3,0c0.5,0,1,0,1.5,0c0.5,0,0.9,0,1.3,0c0.4,0,0.6,0,0.6,0
		s0.3,0,0.6,0c0.4,0,0.8,0,1.4,0c0.6,0,1.2,0,1.8,0s1.3,0,2,0c0.5,0,0.8-0.1,0.8-0.3c0-0.2-0.1-0.2-0.4-0.2c-0.2,0-0.6,0-1,0
		c-0.4,0-0.8-0.1-1.2-0.1c-0.7-0.1-1.2-0.3-1.4-0.7c-0.2-0.4-0.4-0.9-0.4-1.5c-0.1-0.9-0.2-2.1-0.2-3.7c0-1.6,0-3.3,0-5.3v-3.5
		c0-0.2,0.1-0.4,0.3-0.4c0.2,0,0.6,0,1.3,0c0.7,0,1.4,0,2.2,0c0.8,0,1.5,0,2.3,0c0.7,0,1.2,0,1.5,0.1c0.7,0.1,1.3,0.3,1.7,0.6
		c0.4,0.3,0.7,0.6,0.8,0.9c0.1,0.2,0.2,0.5,0.2,0.8c0,0.3,0.1,0.5,0.1,0.7c0,0.2,0.1,0.4,0.3,0.4c0.2,0,0.3-0.1,0.3-0.2
		c0-0.2,0-0.3,0-0.5c0-0.1,0-0.2,0-0.5c0-0.2,0-0.5,0-0.7c0-0.3,0-0.6,0-0.8c0-0.3,0-0.5,0.1-0.7c0.1-0.7,0.1-1.2,0.2-1.6
		c0.1-0.4,0.1-0.6,0.1-0.7c0-0.2-0.1-0.3-0.2-0.3c-0.1,0-0.2,0-0.3,0.1c-0.1,0.1-0.2,0.2-0.3,0.3c-0.2,0.3-0.5,0.5-0.8,0.5
		c-0.3,0.1-0.8,0.2-1.4,0.2c-0.4,0-0.7,0-1.1,0c-0.3,0-0.7,0-1.1,0l-6.1,0c-0.2,0-0.3-0.1-0.3-0.4V78.7
		C400.1,78.4,400.2,78.3,400.5,78.3z"/>
	<path class="st0" d="M428.7,78.2c0.1,0,0.5,0,1.1,0c0.6,0,1.3,0,2.1,0c0.7,0,1.4,0,2.1,0c0.7,0,1.1,0,1.3,0.1
		c1.3,0.1,2.1,0.3,2.5,0.6c0.4,0.2,0.7,0.5,0.9,0.9c0.1,0.2,0.2,0.5,0.2,0.8c0,0.3,0,0.5,0,0.7c0,0.4,0.1,0.5,0.4,0.5
		c0.1,0,0.2,0,0.2-0.1c0-0.1,0.1-0.2,0.1-0.3c0-0.1,0.1-0.3,0.1-0.6c0-0.3,0-0.5,0.1-0.8c0-0.3,0.1-0.6,0.1-0.8c0-0.2,0-0.4,0-0.5
		c0.1-0.6,0.1-1,0.2-1.3c0.1-0.3,0.1-0.5,0.1-0.6c0-0.2-0.1-0.4-0.2-0.4c-0.1,0-0.2,0-0.3,0.1c-0.1,0.1-0.2,0.1-0.3,0.1
		c-0.4,0.1-1.1,0.2-2.1,0.2c-0.3,0-1,0-2.1,0c-1.1,0-2.4,0-3.7,0c-1.3,0-2.4,0-3.5,0c-1,0-1.6,0-1.7,0l-2-0.1c-0.5,0-1.1,0-1.7,0
		c-0.6,0-1.2,0-1.7,0c-0.5,0-0.8,0.1-0.8,0.3c0,0.2,0.1,0.2,0.4,0.2c0.2,0,0.5,0,0.8,0c0.3,0,0.6,0,0.8,0.1c0.8,0.1,1.3,0.4,1.6,0.7
		c0.3,0.4,0.4,0.9,0.5,1.6c0,0.3,0.1,0.7,0.1,1.1c0,0.4,0,0.9,0,1.5c0,0.6,0,1.4,0,2.5c0,1,0,2.3,0,3.9V96c0,2,0,3.8,0,5.3
		c0,1.6-0.1,2.8-0.2,3.7c-0.1,0.6-0.2,1.1-0.4,1.5c-0.2,0.4-0.5,0.7-1,0.7c-0.2,0.1-0.5,0.1-0.7,0.1s-0.5,0-0.7,0
		c-0.3,0-0.4,0.1-0.4,0.2c0,0.2,0.3,0.3,0.8,0.3c0.4,0,0.8,0,1.3,0c0.5,0,1,0,1.5,0c0.5,0,0.9,0,1.3,0s0.6,0,0.6,0
		c0.4,0,0.8,0,1.4,0c0.6,0,1.4,0,2.3,0.1c0.9,0,2.1,0.1,3.4,0.1c1.3,0,2.9,0,4.7,0c0.5,0,0.9,0,1.2,0c0.3,0,0.5-0.1,0.7-0.1
		s0.3-0.2,0.4-0.3c0.1-0.1,0.2-0.3,0.3-0.6c0.1-0.2,0.1-0.5,0.2-1c0.1-0.4,0.1-0.8,0.2-1.3c0.1-0.4,0.1-0.8,0.2-1.2
		c0-0.3,0.1-0.6,0.1-0.6c0-0.1,0-0.3,0-0.4c0-0.1-0.1-0.2-0.3-0.2c-0.2,0-0.3,0.2-0.4,0.6c-0.2,0.9-0.4,1.5-0.7,2s-0.8,0.8-1.4,1
		c-0.6,0.2-1.4,0.4-2.3,0.4c-0.9,0-1.7,0.1-2.3,0.1c-1.2,0-2.1,0-2.8-0.1s-1.3-0.2-1.7-0.5c-0.4-0.2-0.7-0.6-0.8-1
		c-0.1-0.4-0.2-1-0.3-1.7c0-0.2,0-0.7,0-1.3c0-0.6,0-1.3,0-2.1s0-1.5,0-2.2c0-0.7,0-1.2,0-1.6v-3.7c0-0.2,0.1-0.3,0.3-0.3
		c0.2,0,0.6,0,1.2,0c0.6,0,1.3,0,2,0c0.7,0,1.4,0,2.1,0.1c0.7,0,1.2,0.1,1.5,0.1c0.9,0.1,1.5,0.3,1.9,0.6c0.3,0.3,0.5,0.6,0.6,0.9
		c0.1,0.3,0.2,0.5,0.2,0.7c0,0.2,0,0.4,0,0.6c0,0.2,0.1,0.4,0.3,0.4c0.2,0,0.3-0.1,0.3-0.3c0-0.2,0-0.4,0-0.5c0-0.1,0-0.2,0-0.4
		c0-0.2,0-0.4,0-0.7c0-0.3,0-0.5,0-0.8c0-0.3,0-0.5,0.1-0.7c0.1-0.7,0.1-1.2,0.2-1.6c0.1-0.4,0.1-0.6,0.1-0.7c0-0.2-0.1-0.3-0.2-0.3
		c-0.1,0-0.4,0.2-0.7,0.5c-0.2,0.2-0.5,0.4-0.9,0.4c-0.4,0.1-0.8,0.1-1.4,0.2c-0.3,0-0.8,0-1.6,0.1c-0.8,0-1.6,0-2.4,0
		c-0.8,0-1.6,0-2.3,0s-1.1,0-1.3,0c-0.2,0-0.3-0.1-0.3-0.4V78.6C428.5,78.4,428.5,78.2,428.7,78.2z"/>
	<path class="st0" d="M469.9,78.5c1.2,0,2.1,0.1,2.9,0.2s1.3,0.3,1.8,0.5c0.4,0.2,0.7,0.4,0.9,0.7c0.2,0.3,0.3,0.6,0.3,0.9l0,0.5
		c0,0.3,0.1,0.5,0.1,0.6c0,0.1,0.1,0.1,0.3,0.1c0.2,0,0.3-0.2,0.3-0.5c0-0.1,0-0.4,0-0.7c0-0.4,0-0.8,0-1.3c0-0.5,0-0.9,0-1.4
		c0-0.5,0-0.9,0-1.2c0-0.1,0-0.3,0-0.4c0-0.1-0.1-0.1-0.2-0.1c-0.1,0-0.3,0-0.5,0.1c-0.2,0-0.5,0.1-0.9,0.1
		c-0.4,0.1-0.9,0.1-1.4,0.1c-0.6,0-1.2,0.1-2,0.1h-18c-0.3,0-0.8,0-1.6-0.1c-0.8,0-1.5-0.1-2.2-0.1c-0.6-0.1-1.1-0.2-1.4-0.3
		c-0.3-0.1-0.5-0.2-0.7-0.2c-0.1,0-0.2,0.1-0.3,0.3c-0.1,0.2-0.2,0.4-0.2,0.5c0,0.1-0.1,0.3-0.2,0.7c-0.1,0.4-0.2,0.9-0.4,1.4
		c-0.1,0.5-0.2,1-0.3,1.4c-0.1,0.4-0.1,0.7-0.1,0.8c0,0.2,0.1,0.4,0.2,0.4c0.2,0,0.4-0.1,0.5-0.4c0.1-0.1,0.2-0.3,0.3-0.5
		c0.1-0.2,0.3-0.4,0.6-0.8c0.2-0.2,0.4-0.5,0.7-0.6c0.3-0.2,0.6-0.3,1-0.4c0.4-0.1,0.8-0.2,1.4-0.2c0.5-0.1,1.2-0.1,1.9-0.1l7.1-0.1
		V96c0,2,0,3.8,0,5.3c0,1.6-0.1,2.8-0.2,3.7c-0.1,0.6-0.2,1.1-0.4,1.5c-0.2,0.4-0.5,0.7-1,0.7c-0.2,0.1-0.5,0.1-0.7,0.1
		s-0.5,0-0.7,0c-0.3,0-0.4,0.1-0.4,0.2c0,0.2,0.3,0.3,0.8,0.3c0.4,0,0.8,0,1.3,0c0.5,0,1,0,1.5,0c0.5,0,0.9,0,1.3,0s0.6,0,0.6,0
		c0.1,0,0.3,0,0.6,0s0.8,0,1.4,0c0.6,0,1.2,0,1.8,0s1.3,0,2,0c0.5,0,0.8-0.1,0.8-0.3c0-0.2-0.1-0.2-0.4-0.2c-0.2,0-0.6,0-1,0
		s-0.8-0.1-1.2-0.1c-0.7-0.1-1.2-0.3-1.4-0.7c-0.2-0.4-0.4-0.9-0.4-1.5c-0.1-0.9-0.2-2.1-0.2-3.7c0-1.6,0-3.3,0-5.3V78.4L469.9,78.5
		z"/>
</g>
</svg>
