<?xml version="1.0" encoding="utf-8"?>
<!-- Generator: Adobe Illustrator 22.0.1, SVG Export Plug-In . SVG Version: 6.00 Build 0)  -->
<svg version="1.1" id="Layer_1" xmlns="http://www.w3.org/2000/svg" xmlns:xlink="http://www.w3.org/1999/xlink" x="0px" y="0px"
	 viewBox="0 0 197 72.1" style="enable-background:new 0 0 197 72.1;" xml:space="preserve">
<style type="text/css">
	.st0{fill:#FFFFFF;}
</style>
<g>
	<path class="st0" d="M97.8,63.5c0,0-0.5,0.4-0.7,0.4c-0.3,0-0.4,0.9,1.5,0.9c1.9,0,1.8-0.9,1.5-0.9c-0.3,0-0.7-0.4-0.7-0.4
		s-0.5-0.2-0.5-1.9c0-1.7,0-7.1,0-7.1s0.1-0.5,0.3-0.8c0.2-0.3,0.2-1-0.1-1.4c-0.3-0.4-0.2-0.5-0.3-0.7c-0.1-0.3-0.3,0-0.3,0
		c-0.1,0.3,0,0.3-0.3,0.7c-0.3,0.4-0.3,1.1-0.1,1.4c0.2,0.3,0.3,0.8,0.3,0.8s0,5.4,0,7.1C98.3,63.3,97.8,63.5,97.8,63.5z"/>
	<path class="st0" d="M98.5,64.7C98.5,64.7,98.5,64.7,98.5,64.7C98.5,64.7,98.5,64.7,98.5,64.7L98.5,64.7z"/>
	<path class="st0" d="M100.8,70.1c-0.3,0-0.6,0.1-0.6,0.3c0,0.1,0.3,0.3,0.6,0.3c0.3,0,0.6-0.1,0.6-0.3
		C101.4,70.2,101.2,70.1,100.8,70.1z"/>
	<path class="st0" d="M101.8,67.6c0,0-0.5-0.1-0.7,0.4c0,0-0.2,0.5,0.5,0.4c0.7-0.1,0.1,0.5-0.7,0.5c0,0,1.4,0.5,1.7-0.6
		C102.5,67.8,101.8,67.6,101.8,67.6z"/>
	<path class="st0" d="M96.3,70.1c-0.3,0-0.6,0.1-0.6,0.3c0,0.1,0.3,0.3,0.6,0.3c0.3,0,0.6-0.1,0.6-0.3
		C96.9,70.2,96.7,70.1,96.3,70.1z"/>
	<path class="st0" d="M96.3,68.9c-0.8,0-1.4-0.6-0.7-0.5s0.5-0.4,0.5-0.4c-0.3-0.5-0.7-0.4-0.7-0.4s-0.7,0.3-0.7,0.7
		C94.9,69.4,96.3,68.9,96.3,68.9z"/>
	<path class="st0" d="M100.1,67.3c0.1-2-1.4-2.3-1.4-2.3h-0.2c0,0-1.5,0.3-1.4,2.3c0.1,2-0.4,2.1-1.3,2.2c-0.9,0.1,0.3,0.5,0.6,0.4
		c0.4-0.1,1-0.6,1.2-1c0.3-0.4,0.3,0.4,0,0.5c-0.3,0.1-0.3,0.7,0.1,1.4c0,0,0.5,0.5,0.5,0.8c0,0.3,0.3,0.4,0.3,0.4h0.2
		c0,0,0.3-0.1,0.3-0.4c0-0.3,0.5-0.8,0.5-0.8c0.4-0.6,0.4-1.2,0.1-1.4c-0.3-0.1-0.2-0.9,0-0.5c0.3,0.4,0.8,0.8,1.2,1
		c0.4,0.1,1.6-0.3,0.6-0.4C100.5,69.3,100,69.2,100.1,67.3z M98.5,67.9c-0.4,0-0.7-0.5-0.7-1.1c0-0.6,0.3-1.1,0.7-1.1
		c0.4,0,0.7,0.5,0.7,1.1C99.2,67.4,98.9,67.9,98.5,67.9z"/>
	<path class="st0" d="M0,49.1v0.5l62,0.1c-1.2,0.5-3.6,1.6-5.1,3.8C56.4,54,56,54.1,55.8,54c-0.3,0-0.4,0-0.7-0.1
		c-0.4-0.1-0.7-1.2,0-1.3s0.6,0.6,0.6,0.6c0.4-0.3,0.1-1.2-0.5-1.1c-0.6,0-1,1.1-0.6,1.7c0.2,0.4,0.7,0.4,1.1,0.4l0,0
		c0,0,0.1,0,0.1,0c0,0,0.1,0,0.1,0c0.1,0,0.1,0,0.2,0c0.1,0,0.2,0,0.2,0l0,0c0.1,0,0.2-0.1,0.2-0.1c-0.6,0.4-2.1,1.2-2.6,0
		c-0.6-1.3,0.2-2.8-2.1-3.1c0,0-1.2,0.2-1.3,1.1c0,0-0.1,0.4-0.6,0.5c-0.2,0-0.4,0.1-0.5,0.1l0.1-0.1c-2.8-2.2-4.9-1.2-6.6,0.1
		c-0.6,0.4-1.2,0.6-1.7,0.4c-0.4-0.2-0.8-0.5-0.9-1c-0.1-0.3,0-0.7,0.3-0.9c0.3-0.2,0.9-0.4,1.4-0.1c0.2,0.1,0.5,0.3,0.5,0.5
		c0,0.2-0.2,0.4-0.4,0.6c-0.2,0.1-0.6-0.2-0.6-0.3l-0.3-0.2l0.1,0.4c0.2,0.2,0.6,0.5,1,0.3c0.2-0.2,0.5-0.5,0.5-0.8
		c0-0.3-0.2-0.6-0.6-0.8c-0.2-0.1-0.5-0.2-0.8-0.2c-0.3,0-0.7,0.1-0.9,0.3c-0.4,0.3-0.5,0.8-0.4,1.2c0.2,0.6,0.6,1,1.1,1.2
		c0.6,0.2,1.4,0.1,2-0.4c0.7-0.5,1.4-1,2.2-1.2c-0.4,0.2-0.8,0.6-0.7,1.2c0.2,1.2,2,1.5,2.2,0.6c0.2-0.9-0.9-1-0.7-0.8
		c0.2,0.2,0.4,0.5,0.1,0.8c-0.3,0.3-0.9,0.1-1-0.6c-0.1-0.9,0.3-1.2,0.7-1.3c1-0.1,2.1,0.2,3.4,1.2l0,0c-0.1,0.1-0.1,0.3-0.1,0.6
		c0,0.7,0.2,1.7-0.6,1.6c-0.2,0-0.6,0.1-0.9-0.3c0,0,0.1,0.8,0.9,0.8c0.8,0.1,1.6-1.4,1.7-1.5c0.1-0.1,0.5-0.8,1.2-0.8
		s1.6,1,2.1,1.8c0.4,0.6,1.8,0.5,2.7-0.4c-0.2,0.4-0.4,0.7-0.5,1.2c-0.6,3.4,2.1,6.1,5.2,5.7c0,0,2.8-0.2,3.1-2.4
		c-0.2-1.7-2.2-1.5-2.4-1.4c0,0,1.2,0.4,1.2,1.4c0,1-1,1.3-1.8,1.3s-2-1-0.9-1.2c0,0,1,0.1,0.9-0.5c-0.1-0.6-1-0.6-1.1-0.6
		c-0.1,0-1,0.2-1.2,0.6c-0.3,0.4-2.3,0.7-2.4-1.7c-0.1-2.2,1-3.9,4.3-6c-0.9,0.6-2.2,1.8-2.6,3.9c-0.3,1.4,0.8,2.8,2,2.7
		c1.2-0.1,1.5-1,1.5-1.4c0-0.4-0.5-1.1-1.1-0.3c0,0,0.7-0.2,0.7,0.3c0,0.6-0.6,0.7-1,0.7c-0.4,0-1.9-0.4-1.5-2.2
		c0.4-1.8,1.7-3.5,4.4-4.5l0.5-0.1c0,0-0.6,0.4-0.8,1.2c-0.1,0.8,0.7,2.2,2.1,1.9c0.5-0.3,0.3-0.6,0-0.6c0,0-1-0.2-0.9-1.1
		c0.1-1,0.2-1.2,1.3-1.4l0,0l4.4,0c1.3,0.4,3.4,1.3,4.9,2.7c0,0-2.7,1.9-3.1,4.8c-0.4,2.9,0.9,4.4,2.3,4.4c1.4,0,2.8-0.4,3.4-4.1
		c0.2-2.2-1.7-4.8-1.7-4.8s2.9-2.6,6.9-2.6c0,0-3.7,0.7-4,3.4c-0.3,2.7,1.9,2.3,1.9,2.3s1.3-0.2,0.6-1.8c-0.7-1.6,0.2-3.3,4-4
		c0,0,5.1-0.5,5.9,2.5c0.8,3-1.5,3.6-2.2,3.5c-0.7-0.1-1.5-0.7-1.1-1.4c0.4-0.6,0.8-0.3,1.2,0c0,0,0.5-0.1,0-0.5
		c-0.5-0.3-1.5-0.3-1.6,0.8c-0.1,1.7,2.3,1.7,3.1,1c0.8-0.7,1.8-1.3,1.1-3.7c0,0,1.9,0.9,0.7,3.3c-1.2,2.4-3.3,1.6-3.7,1.5
		c-0.4-0.1,1.9,2.2,4,0.6c2.1-1.6,0.9-3.5,0.8-4.1c0,0,5.2,6-1.2,9.7c0,0-1.8,0.5-2.7,0c-0.8-0.5-0.6-0.9-0.6-0.9S89.2,61,90,62
		c0,0,0.1,0.4-0.4,0.3c-0.3,0,0.4,0.3,0.5,0.1c0.3-0.4,0-1-0.8-0.9c-0.1,0-0.1,0-0.1,0c0-0.1,0.1-0.1,0.1-0.1
		c0.4-0.5,0.3-0.9,0.3-1.2c0-0.3-1.1-2.1-3.2-1.8c-2.1,0.3-4.7,1.4-4.8,4.4c-0.1,3,3.7,5.1,6.5,5c2.8-0.1,7.9-0.8,9.1-8.2
		c-0.2-7.2-7.5-9.3-9.6-9.9l10.9,0l11.2,0c-2.1,0.5-9.4,2.7-9.6,9.9c1.2,7.4,6.3,8.1,9.1,8.2c2.8,0.1,6.5-2,6.5-5
		c-0.1-3-2.7-4.1-4.8-4.4c-2.1-0.3-3.2,1.5-3.2,1.8c0,0.2-0.1,0.6,0.3,1.2c0.1,0,0.1,0.1,0.1,0.1c0,0-0.1,0-0.1,0
		c-0.9-0.1-1.2,0.5-0.8,0.9c0.2,0.2,0.8-0.1,0.5-0.1c-0.6,0.1-0.4-0.3-0.4-0.3c0.8-1,1.4,0.3,1.4,0.3s0.2,0.4-0.6,0.9
		c-0.8,0.5-2.7,0-2.7,0c-6.4-3.7-1.2-9.7-1.2-9.7c-0.2,0.6-1.3,2.5,0.8,4.1c2.1,1.6,4.3-0.6,4-0.6c-0.4,0.1-2.5,0.9-3.7-1.5
		c-1.2-2.4,0.7-3.3,0.7-3.3c-0.6,2.4,0.3,2.9,1.1,3.7c0.8,0.7,3.2,0.7,3.1-1c-0.1-1-1.1-1.1-1.6-0.8c-0.5,0.3,0,0.5,0,0.5
		c0.4-0.4,0.8-0.7,1.2,0c0.4,0.6-0.4,1.3-1.1,1.4c-0.7,0.1-3-0.5-2.2-3.5c0.8-3,5.9-2.5,5.9-2.5c3.8,0.7,4.7,2.4,4,4
		c-0.7,1.6,0.6,1.8,0.6,1.8s2.2,0.4,1.9-2.3c-0.3-2.7-4-3.4-4-3.4c3.9,0,6.9,2.6,6.9,2.6s-1.9,2.5-1.7,4.8c0.6,3.7,2,4.1,3.4,4.1
		c1.4,0,2.7-1.5,2.3-4.4c-0.4-2.9-3.1-4.8-3.1-4.8c1.5-1.5,3.6-2.3,4.9-2.7l4.4,0l0,0c1.1,0.3,1.2,0.5,1.3,1.4
		c0.1,1-0.9,1.1-0.9,1.1c-0.3,0.1-0.5,0.4,0,0.6c1.4,0.4,2.2-1.1,2.1-1.9c-0.1-0.8-0.8-1.2-0.8-1.2l0.5,0.1c2.7,1,3.9,2.6,4.4,4.5
		c0.4,1.8-1.1,2.2-1.5,2.2s-1-0.2-1-0.7c0-0.6,0.7-0.3,0.7-0.3c-0.6-0.8-1.1-0.1-1.1,0.3c0,0.4,0.3,1.3,1.5,1.4
		c1.2,0.1,2.3-1.2,2-2.7c-0.4-2.1-1.8-3.3-2.6-3.9c3.3,2.1,4.4,3.8,4.3,6c-0.1,2.4-2.1,2.1-2.4,1.7c-0.3-0.4-1.1-0.6-1.2-0.6
		c-0.1,0-1,0-1.1,0.6c-0.1,0.6,0.9,0.5,0.9,0.5c1.1,0.2-0.2,1.2-0.9,1.2c-0.7,0-1.8-0.4-1.8-1.3c0-1,1.2-1.4,1.2-1.4
		c-0.2-0.1-2.2-0.3-2.4,1.4c0.3,2.3,3.1,2.4,3.1,2.4c3,0.4,5.8-2.3,5.2-5.7c-0.1-0.4-0.3-0.8-0.5-1.2c0.9,0.9,2.4,1,2.7,0.4
		c0.4-0.7,1.4-1.8,2.1-1.8c0.6,0,1.1,0.8,1.2,0.8c0.1,0.1,0.9,1.5,1.7,1.5c0.8-0.1,0.9-0.8,0.9-0.8c-0.2,0.4-0.6,0.3-0.9,0.3
		c-0.8,0.2-0.6-0.9-0.6-1.6c0-0.3-0.1-0.4-0.1-0.6l0,0c1.3-1,2.4-1.3,3.4-1.2c0.4,0.1,0.8,0.5,0.7,1.3c-0.1,0.7-0.7,0.9-1,0.6
		c-0.3-0.3-0.2-0.6,0.1-0.8c0.2-0.2-0.9-0.1-0.7,0.8c0.2,0.9,2,0.6,2.2-0.6c0.1-0.6-0.3-1-0.7-1.2c0.8,0.2,1.5,0.7,2.2,1.2
		c0.7,0.5,1.4,0.7,2,0.4c0.5-0.2,1-0.6,1.1-1.2c0.1-0.5,0-0.9-0.4-1.2c-0.3-0.2-0.6-0.3-0.9-0.3c-0.3,0-0.5,0.1-0.8,0.2
		c-0.4,0.2-0.6,0.5-0.6,0.8c0,0.4,0.3,0.7,0.5,0.8c0.4,0.2,0.8-0.1,1-0.3l0.1-0.4l-0.3,0.2c0,0-0.4,0.4-0.6,0.3
		c-0.2-0.1-0.4-0.3-0.4-0.6c0-0.2,0.3-0.4,0.5-0.5c0.5-0.3,1.1-0.2,1.4,0.1c0.3,0.2,0.4,0.5,0.3,0.9c-0.1,0.5-0.5,0.8-0.9,1
		c-0.5,0.2-1.2,0-1.7-0.4c-1.7-1.3-3.8-2.3-6.6-0.1l0.1,0.1c-0.1-0.1-0.3-0.1-0.5-0.1c-0.5-0.1-0.6-0.5-0.6-0.5
		c0-0.9-1.3-1.1-1.3-1.1c-2.2,0.3-1.5,1.8-2.1,3.1c-0.5,1.2-1.9,0.4-2.6,0c0.1,0,0.2,0.1,0.2,0.1l0,0c0,0,0.1,0,0.2,0
		c0.1,0,0.1,0,0.2,0c0,0,0.1,0,0.1,0c0,0,0.1,0,0.1,0l0,0c0.4,0,0.9,0,1.1-0.4c0.4-0.7,0-1.7-0.6-1.7c-0.6,0-0.9,0.8-0.5,1.1
		c0,0-0.1-0.7,0.6-0.6c0.7,0.1,0.5,1.2,0,1.3c-0.2,0.1-0.4,0.1-0.7,0.1c-0.2,0-0.6,0-1.2-0.5c-1.5-2.2-3.9-3.4-5.1-3.8l62-0.1v-0.5
		l-98.7-0.4L0,49.1z M76.2,56.9c0,1.5-0.7,3.7-2.5,3.6c-1.8-0.1-2.1-2.7-1.1-4.6c1-1.9,2.4-2.7,2.4-2.7S76.2,55.4,76.2,56.9z
		 M75.1,52.1c0,0-1.1-1.4-3.8-2.4l9.3,0C78.8,50.1,76.8,50.8,75.1,52.1z M89,64.7c-0.6,0.2-0.8-0.3-0.8-0.3s-0.2,0.6,0.5,0.7
		c0.8,0.1,1.4-0.5,1.3-1c0-0.1-0.2-0.3-0.4-0.5c0.3,0.1,0.6,0.1,0.9,0.1c1.5-0.2,3-0.6,4.5-3.4c0,0,0.5,2.6-3.2,4.9
		c-4.1,1.5-4.3-0.7-4.3-0.7s0.1-0.8,1.1-0.8C89.5,63.7,89.6,64.5,89,64.7z M96.5,59.2c-0.3,2.8-1.1,6.3-5.8,7.7
		c-4.7,1.4-7.8-2.1-8-3.1s-0.5-4.3,3.5-4.6c2.1-0.2,2.6,1.6,2.6,1.6s0.1,1.2-1.1,1.1c-1.2-0.1-0.9-1-0.9-1s-0.3-0.3-0.4,0.1
		c-0.1,0.3,0.2,1.9,1.8,1.2c0,0,0.2-0.1,0.2-0.1c0,0,0,0,0,0c-0.3,0.4-0.1,0.8,0.2,1.1c0.1,0.1,0.2,0.2,0.3,0.2c-0.2,0-0.6,0-0.7,0
		c-0.8,0.2-1.4,1.4-0.5,2.1c0.8,0.7,3.2,0.8,5.3-0.5c2.1-1.9,2.5-3.4,2.7-5.8s-2-5.7-2-5.7S96.8,56.4,96.5,59.2z M102,60.4
		c1.5,2.8,3,3.2,4.5,3.4c0.3,0,0.6,0,0.9-0.1c-0.2,0.2-0.3,0.3-0.4,0.5c-0.1,0.5,0.5,1.1,1.3,1c0.8-0.1,0.5-0.7,0.5-0.7
		s-0.3,0.5-0.8,0.3c-0.6-0.2-0.5-1,0.5-1c1,0,1.1,0.8,1.1,0.8s-0.2,2.2-4.3,0.7C101.5,63,102,60.4,102,60.4z M101.4,59.1
		c0.2,2.5,0.5,3.9,2.7,5.8c2.2,1.4,4.5,1.3,5.3,0.5c0.8-0.7,0.3-1.9-0.5-2.1c-0.1,0-0.6,0-0.7,0c0.1-0.1,0.2-0.1,0.3-0.2
		c0.4-0.3,0.5-0.7,0.2-1.1c0,0,0,0,0,0c0.1,0,0.2,0.1,0.2,0.1c1.7,0.6,1.9-0.9,1.8-1.2c-0.1-0.3-0.4-0.1-0.4-0.1s0.3,0.9-0.9,1
		c-1.2,0.1-1.1-1.1-1.1-1.1s0.5-1.8,2.6-1.6c4,0.3,3.7,3.6,3.5,4.6c-0.2,1-3.3,4.5-8,3.1c-4.7-1.4-5.6-4.9-5.8-7.7
		c-0.3-2.8,2.9-5.8,2.9-5.8S101.2,56.6,101.4,59.1z M124.4,55.9c1,1.9,0.6,4.5-1.1,4.6c-1.8,0.1-2.5-2.1-2.5-3.6
		c0-1.5,1.2-3.7,1.2-3.7S123.4,53.9,124.4,55.9z M125.6,49.7c-2.6,0.9-3.8,2.4-3.8,2.4c-1.7-1.3-3.7-2-5.6-2.4L125.6,49.7z"/>
	<path class="st0" d="M99.2,8.5c0,0,0.5-0.4,0.7-0.4c0.3,0,0.4-0.9-1.5-0.9c-1.8,0-1.8,0.9-1.5,0.9c0.3,0,0.7,0.4,0.7,0.4
		s0.5,0.2,0.5,1.9c0,1.7,0,7.1,0,7.1S98.2,18,98,18.3c-0.2,0.3-0.2,1,0.1,1.4c0.3,0.4,0.2,0.4,0.3,0.7c0,0,0.1,0.3,0.3,0
		c0.1-0.3,0-0.3,0.3-0.7c0.3-0.4,0.3-1.1,0.1-1.4c-0.2-0.3-0.3-0.8-0.3-0.8s0-5.4,0-7.1C98.7,8.7,99.2,8.5,99.2,8.5z"/>
	<path class="st0" d="M98.5,7.3C98.5,7.3,98.5,7.3,98.5,7.3C98.5,7.3,98.5,7.3,98.5,7.3L98.5,7.3z"/>
	<path class="st0" d="M100.8,1.9c0.3,0,0.6-0.1,0.6-0.3c0-0.1-0.3-0.3-0.6-0.3c-0.3,0-0.6,0.1-0.6,0.3
		C100.2,1.8,100.5,1.9,100.8,1.9z"/>
	<path class="st0" d="M100.8,3.1c0.8,0,1.4,0.6,0.7,0.5C100.9,3.5,101,4,101,4c0.3,0.5,0.7,0.4,0.7,0.4s0.7-0.3,0.7-0.7
		C102.2,2.6,100.8,3.1,100.8,3.1z"/>
	<path class="st0" d="M96.3,1.9c0.3,0,0.6-0.1,0.6-0.3c0-0.1-0.3-0.3-0.6-0.3c-0.3,0-0.6,0.1-0.6,0.3C95.7,1.8,96,1.9,96.3,1.9z"/>
	<path class="st0" d="M95.4,4.5c0,0,0.5,0.1,0.7-0.4c0,0,0.2-0.5-0.5-0.4c-0.7,0.1-0.1-0.5,0.7-0.5c0,0-1.4-0.5-1.7,0.6
		C94.6,4.2,95.4,4.5,95.4,4.5z"/>
	<path class="st0" d="M97,4.8c-0.1,2,1.4,2.3,1.4,2.3h0.2c0,0,1.5-0.3,1.4-2.3c-0.1-2,0.4-2.1,1.3-2.2c0.9-0.1-0.3-0.5-0.6-0.4
		c-0.4,0.1-1,0.6-1.2,1c-0.3,0.4-0.3-0.4,0-0.5c0.3-0.1,0.3-0.7-0.1-1.4c0,0-0.5-0.5-0.5-0.8C99,0.1,98.7,0,98.7,0h-0.2
		c0,0-0.3,0.1-0.3,0.4c0,0.3-0.5,0.8-0.5,0.8c-0.4,0.6-0.4,1.2-0.1,1.4c0.3,0.1,0.2,0.9,0,0.5c-0.3-0.4-0.8-0.8-1.2-1
		C96,2,94.8,2.5,95.7,2.6C96.6,2.7,97.1,2.8,97,4.8z M98.5,4.1c0.4,0,0.7,0.5,0.7,1.1c0,0.6-0.3,1.1-0.7,1.1c-0.4,0-0.7-0.5-0.7-1.1
		C97.8,4.6,98.1,4.1,98.5,4.1z"/>
	<path class="st0" d="M135,22.3c1.2-0.5,3.6-1.6,5.1-3.8c0.5-0.5,0.9-0.5,1.2-0.5c0.3,0,0.4,0,0.7,0.1c0.4,0.1,0.7,1.2,0,1.3
		c-0.7,0.1-0.6-0.6-0.6-0.6c-0.4,0.3-0.1,1.2,0.5,1.1c0.6,0,1-1.1,0.6-1.7c-0.2-0.4-0.7-0.4-1.1-0.4l0,0c0,0-0.1,0-0.1,0
		c0,0-0.1,0-0.1,0c-0.1,0-0.1,0-0.2,0c-0.1,0-0.2,0-0.2,0l0,0c-0.1,0-0.2,0.1-0.2,0.1c0.6-0.4,2.1-1.2,2.6,0
		c0.6,1.3-0.2,2.8,2.1,3.1c0,0,1.2-0.2,1.3-1.1c0,0,0.1-0.4,0.6-0.5c0.2,0,0.4-0.1,0.5-0.1l-0.1,0.1c2.8,2.2,4.9,1.2,6.6-0.1
		c0.6-0.4,1.2-0.6,1.7-0.4c0.4,0.2,0.8,0.5,0.9,1c0.1,0.3,0,0.7-0.3,0.9c-0.3,0.2-0.9,0.4-1.4,0.1c-0.2-0.1-0.5-0.3-0.5-0.5
		c0-0.2,0.2-0.4,0.4-0.6c0.2-0.1,0.6,0.2,0.6,0.3l0.3,0.2l-0.1-0.4c-0.2-0.2-0.6-0.5-1-0.3c-0.2,0.2-0.5,0.5-0.5,0.8
		c0,0.3,0.2,0.6,0.6,0.8c0.2,0.1,0.5,0.2,0.8,0.2c0.3,0,0.7-0.1,0.9-0.3c0.4-0.3,0.5-0.8,0.4-1.2c-0.2-0.6-0.6-1-1.1-1.2
		c-0.6-0.2-1.4-0.1-2,0.4c-0.7,0.5-1.4,1-2.2,1.2c0.4-0.2,0.8-0.6,0.7-1.2c-0.2-1.2-2-1.5-2.2-0.6c-0.2,0.9,0.9,1,0.7,0.8
		c-0.2-0.2-0.4-0.5-0.1-0.8c0.3-0.3,0.9-0.1,1,0.6c0.1,0.9-0.3,1.2-0.7,1.3c-1,0.1-2.1-0.2-3.4-1.2l0,0c0.1-0.1,0.1-0.3,0.1-0.6
		c0-0.7-0.2-1.7,0.6-1.6c0.2,0,0.6-0.1,0.9,0.3c0,0-0.1-0.8-0.9-0.8c-0.8-0.1-1.6,1.4-1.7,1.5c-0.1,0.1-0.5,0.8-1.2,0.8
		c-0.6,0-1.6-1-2.1-1.8c-0.4-0.6-1.8-0.5-2.7,0.4c0.2-0.4,0.4-0.7,0.5-1.2c0.6-3.4-2.1-6.1-5.2-5.7c0,0-2.8,0.2-3.1,2.4
		c0.2,1.7,2.2,1.5,2.4,1.4c0,0-1.2-0.4-1.2-1.4c0-1,1-1.3,1.8-1.3c0.7,0,2,1,0.9,1.2c0,0-1-0.1-0.9,0.5c0.1,0.6,1,0.6,1.1,0.6
		c0.1,0,1-0.2,1.2-0.6c0.3-0.4,2.3-0.7,2.4,1.7c0.1,2.2-1,3.9-4.3,6c0.9-0.6,2.2-1.8,2.6-3.9c0.3-1.4-0.8-2.8-2-2.7
		c-1.2,0.1-1.5,1-1.5,1.4c0,0.4,0.5,1.1,1.1,0.3c0,0-0.7,0.2-0.7-0.3c0-0.6,0.6-0.7,1-0.7s1.9,0.4,1.5,2.2c-0.4,1.8-1.7,3.5-4.4,4.5
		l-0.5,0.1c0,0,0.6-0.4,0.8-1.2c0.1-0.8-0.7-2.2-2.1-1.9c-0.5,0.3-0.3,0.6,0,0.6c0,0,1,0.2,0.9,1.1c-0.1,1-0.2,1.2-1.3,1.4l0,0
		l-4.4,0c-1.3-0.4-3.4-1.3-4.9-2.7c0,0,2.7-1.9,3.1-4.8c0.4-2.9-0.9-4.4-2.3-4.4c-1.4,0-2.8,0.4-3.4,4.1c-0.2,2.2,1.7,4.8,1.7,4.8
		s-2.9,2.6-6.9,2.6c0,0,3.7-0.7,4-3.4c0.3-2.7-1.9-2.3-1.9-2.3s-1.3,0.2-0.6,1.8s-0.2,3.3-4,4c0,0-5.1,0.5-5.9-2.5
		c-0.8-3,1.5-3.6,2.2-3.5c0.7,0.1,1.5,0.7,1.1,1.4c-0.4,0.6-0.8,0.3-1.2,0c0,0-0.5,0.1,0,0.5c0.5,0.3,1.5,0.3,1.6-0.8
		c0.1-1.7-2.3-1.7-3.1-1c-0.8,0.7-1.8,1.3-1.1,3.7c0,0-1.9-0.9-0.7-3.3c1.2-2.4,3.3-1.6,3.7-1.5c0.4,0.1-1.9-2.2-4-0.6
		c-2.1,1.6-0.9,3.5-0.8,4.1c0,0-5.2-6,1.2-9.7c0,0,1.8-0.5,2.7,0c0.8,0.5,0.6,0.9,0.6,0.9S107.7,11,107,10c0,0-0.1-0.4,0.4-0.3
		c0.3,0-0.4-0.3-0.5-0.1c-0.3,0.4,0,1,0.8,0.9c0.1,0,0.1,0,0.1,0c0,0.1-0.1,0.1-0.1,0.1c-0.4,0.5-0.3,0.9-0.3,1.2
		c0,0.3,1.1,2.1,3.2,1.8c2.1-0.3,4.7-1.4,4.8-4.4c0.1-3-3.7-5.1-6.5-5c-2.8,0.1-7.9,0.8-9.1,8.2c0.2,7.2,7.5,9.3,9.6,9.9l-11.2,0
		l-10.9,0c2.1-0.5,9.4-2.7,9.6-9.9c-1.2-7.4-6.3-8.1-9.1-8.2c-2.8-0.1-6.5,2-6.5,5c0.1,3,2.7,4.1,4.8,4.4c2.1,0.3,3.2-1.5,3.2-1.8
		c0-0.2,0.1-0.6-0.3-1.2c-0.1,0-0.1-0.1-0.1-0.1c0,0,0.1,0,0.1,0c0.9,0.1,1.2-0.5,0.8-0.9c-0.2-0.2-0.8,0.1-0.5,0.1
		C90.1,9.6,90,10,90,10c-0.8,1-1.4-0.3-1.4-0.3s-0.2-0.4,0.6-0.9c0.8-0.5,2.7,0,2.7,0c6.4,3.7,1.2,9.7,1.2,9.7
		c0.2-0.6,1.3-2.5-0.8-4.1c-2.1-1.6-4.3,0.6-4,0.6c0.4-0.1,2.5-0.9,3.7,1.5c1.2,2.4-0.7,3.3-0.7,3.3c0.6-2.4-0.3-2.9-1.1-3.7
		c-0.8-0.7-3.2-0.7-3.1,1c0.1,1,1.1,1.1,1.6,0.8c0.5-0.3,0-0.5,0-0.5c-0.4,0.4-0.8,0.7-1.2,0c-0.4-0.6,0.4-1.3,1.1-1.4
		c0.7-0.1,3,0.5,2.2,3.5c-0.8,3-5.9,2.5-5.9,2.5c-3.8-0.7-4.7-2.4-4-4c0.7-1.6-0.6-1.8-0.6-1.8s-2.2-0.4-1.9,2.3
		c0.3,2.7,4,3.4,4,3.4c-3.9,0-6.9-2.6-6.9-2.6s1.9-2.5,1.7-4.8c-0.6-3.7-2-4.1-3.4-4.1s-2.7,1.5-2.3,4.4c0.4,2.9,3.1,4.8,3.1,4.8
		c-1.5,1.5-3.6,2.3-4.9,2.7l-4.4,0l0,0c-1.1-0.3-1.2-0.5-1.3-1.4c-0.1-1,0.9-1.1,0.9-1.1c0.3-0.1,0.5-0.4,0-0.6
		c-1.4-0.4-2.2,1.1-2.1,1.9c0.1,0.8,0.8,1.2,0.8,1.2L63.1,22c-2.7-1-3.9-2.6-4.4-4.5c-0.4-1.8,1.1-2.2,1.5-2.2c0.4,0,1,0.2,1,0.7
		c0,0.6-0.7,0.3-0.7,0.3c0.6,0.8,1.1,0.1,1.1-0.3c0-0.4-0.3-1.3-1.5-1.4c-1.2-0.1-2.3,1.2-2,2.7c0.4,2.1,1.8,3.3,2.6,3.9
		c-3.3-2.1-4.4-3.8-4.3-6c0.1-2.4,2.1-2.1,2.4-1.7c0.3,0.4,1.1,0.6,1.2,0.6c0.1,0,1,0,1.1-0.6c0.1-0.6-0.9-0.5-0.9-0.5
		c-1.1-0.2,0.2-1.2,0.9-1.2s1.8,0.4,1.8,1.3c0,1-1.2,1.4-1.2,1.4c0.2,0.1,2.2,0.3,2.4-1.4c-0.3-2.3-3.1-2.4-3.1-2.4
		c-3-0.4-5.8,2.3-5.2,5.7c0.1,0.4,0.3,0.8,0.5,1.2c-0.9-0.9-2.4-1-2.7-0.4C53.2,18,52.3,19,51.6,19s-1.1-0.8-1.2-0.8
		c-0.1-0.1-0.9-1.5-1.7-1.5c-0.8,0.1-0.9,0.8-0.9,0.8c0.2-0.4,0.6-0.3,0.9-0.3c0.8-0.2,0.6,0.9,0.6,1.6c0,0.3,0.1,0.4,0.1,0.6l0,0
		c-1.3,1-2.4,1.3-3.4,1.2c-0.4-0.1-0.8-0.5-0.7-1.3c0.1-0.7,0.7-0.9,1-0.6c0.3,0.3,0.2,0.6-0.1,0.8c-0.2,0.2,0.9,0.1,0.7-0.8
		c-0.2-0.9-2-0.6-2.2,0.6c-0.1,0.6,0.3,1,0.7,1.2c-0.8-0.2-1.5-0.7-2.2-1.2c-0.7-0.5-1.4-0.7-2-0.4c-0.5,0.2-1,0.6-1.1,1.2
		c-0.1,0.5,0,0.9,0.4,1.2c0.3,0.2,0.6,0.3,0.9,0.3c0.3,0,0.5-0.1,0.8-0.2c0.4-0.2,0.6-0.5,0.6-0.8c0-0.4-0.3-0.7-0.5-0.8
		c-0.4-0.2-0.8,0.1-1,0.3l-0.1,0.4l0.3-0.2c0,0,0.4-0.4,0.6-0.3c0.2,0.1,0.4,0.3,0.4,0.6c0,0.2-0.3,0.4-0.5,0.5
		c-0.5,0.3-1.1,0.2-1.4-0.1c-0.3-0.2-0.4-0.5-0.3-0.9c0.1-0.5,0.5-0.8,0.9-1c0.5-0.2,1.2,0,1.7,0.4c1.7,1.3,3.8,2.3,6.6,0.1
		l-0.1-0.1c0.1,0.1,0.3,0.1,0.5,0.1c0.5,0.1,0.6,0.5,0.6,0.5c0,0.9,1.3,1.1,1.3,1.1c2.2-0.3,1.5-1.8,2.1-3.1c0.5-1.2,1.9-0.4,2.6,0
		c-0.1,0-0.2-0.1-0.2-0.1l0,0c0,0-0.1,0-0.2,0c-0.1,0-0.1,0-0.2,0c0,0-0.1,0-0.1,0c0,0-0.1,0-0.1,0l0,0c-0.4,0-0.9,0-1.1,0.4
		c-0.4,0.7,0,1.7,0.6,1.7c0.6,0,0.9-0.8,0.5-1.1c0,0,0.1,0.7-0.6,0.6c-0.7-0.1-0.5-1.2,0-1.3c0.2-0.1,0.4-0.1,0.7-0.1
		c0.2,0,0.6,0,1.2,0.5c1.5,2.2,3.9,3.4,5.1,3.8L0,22.4v0.5l98.3,0.4l98.7-0.4v-0.5L135,22.3z M107.9,7.3c0.6-0.2,0.8,0.3,0.8,0.3
		s0.2-0.6-0.5-0.7c-0.8-0.1-1.4,0.5-1.3,1c0,0.1,0.2,0.3,0.4,0.5c-0.3-0.1-0.6-0.1-0.9-0.1c-1.5,0.2-3,0.6-4.5,3.4
		c0,0-0.5-2.6,3.2-4.9c4.1-1.5,4.3,0.7,4.3,0.7s-0.1,0.8-1.1,0.8C107.4,8.3,107.3,7.5,107.9,7.3z M100.5,12.8
		c0.3-2.8,1.1-6.3,5.8-7.7c4.7-1.4,7.8,2.1,8,3.1c0.2,1,0.5,4.3-3.5,4.6c-2.1,0.2-2.6-1.6-2.6-1.6s-0.1-1.2,1.1-1.1
		c1.2,0.1,0.9,1,0.9,1s0.3,0.3,0.4-0.1c0.1-0.3-0.2-1.9-1.8-1.2c0,0-0.2,0.1-0.2,0.1c0,0,0,0,0,0c0.3-0.4,0.1-0.8-0.2-1.1
		c-0.1-0.1-0.2-0.2-0.3-0.2c0.2,0,0.6,0,0.7,0c0.8-0.2,1.4-1.4,0.5-2.1c-0.8-0.7-3.2-0.8-5.3,0.5c-2.1,1.9-2.5,3.4-2.7,5.8
		c-0.2,2.5,2,5.7,2,5.7S100.2,15.6,100.5,12.8z M95,11.6c-1.5-2.8-3-3.2-4.5-3.4c-0.3,0-0.6,0-0.9,0.1C89.8,8.2,89.9,8,90,7.8
		c0.1-0.5-0.5-1.1-1.3-1c-0.8,0.1-0.5,0.7-0.5,0.7s0.3-0.5,0.8-0.3c0.6,0.2,0.5,1-0.5,1c-1,0-1.1-0.8-1.1-0.8s0.2-2.2,4.3-0.7
		C95.5,9,95,11.6,95,11.6z M95.6,12.9C95.4,10.4,95,9,92.9,7.1c-2.2-1.4-4.5-1.3-5.3-0.5c-0.8,0.7-0.3,1.9,0.5,2.1
		c0.1,0,0.6,0,0.7,0c-0.1,0.1-0.2,0.1-0.3,0.2c-0.4,0.3-0.5,0.7-0.2,1.1c0,0,0,0,0,0c-0.1,0-0.2-0.1-0.2-0.1
		c-1.7-0.6-1.9,0.9-1.8,1.2c0.1,0.3,0.4,0.1,0.4,0.1s-0.3-0.9,0.9-1c1.2-0.1,1.1,1.1,1.1,1.1s-0.5,1.8-2.6,1.6
		c-4-0.3-3.7-3.6-3.5-4.6c0.2-1,3.3-4.5,8-3.1c4.7,1.4,5.6,4.9,5.8,7.7c0.3,2.8-2.9,5.8-2.9,5.8S95.7,15.4,95.6,12.9z M72.6,16.1
		c-1-1.9-0.6-4.5,1.1-4.6c1.8-0.1,2.5,2.1,2.5,3.6c0,1.5-1.2,3.7-1.2,3.7S73.6,18.1,72.6,16.1z M71.4,22.3c2.6-0.9,3.8-2.4,3.8-2.4
		c1.7,1.3,3.7,2,5.6,2.4L71.4,22.3z M120.7,15.2c0-1.5,0.7-3.7,2.5-3.6c1.8,0.1,2.1,2.7,1.1,4.6c-1,1.9-2.4,2.7-2.4,2.7
		S120.7,16.6,120.7,15.2z M116.3,22.3c1.9-0.4,3.9-1.1,5.6-2.4c0,0,1.1,1.4,3.8,2.4L116.3,22.3z"/>
	<path class="st0" d="M21.9,41.6c-0.1,0-0.1,0.1-0.1,0.1c0,0.1,0,0.1,0.1,0.1c0.1,0,0.2,0,0.4,0c0.3,0,0.6,0,1,0c0.3,0,0.6,0,0.9,0
		c0.3,0,0.5,0,0.7,0c0.2,0,0.3,0,0.4,0c0.1,0,0.2,0,0.3,0c0.1,0,0.1-0.1,0.1-0.1c0-0.1-0.1-0.1-0.2-0.1c-0.1,0-0.2,0-0.3,0
		s-0.3,0-0.4-0.1c-0.1,0-0.2-0.1-0.3-0.1c-0.1-0.1-0.2-0.1-0.4-0.3s-0.3-0.3-0.4-0.5s-0.3-0.5-0.5-0.9c-0.2-0.4-0.4-0.9-0.7-1.5
		c-0.3-0.6-0.6-1.2-0.9-1.9c-0.3-0.7-0.6-1.4-0.9-2.1S20,33,19.8,32.4s-0.5-1.1-0.6-1.5c-0.2-0.4-0.3-0.7-0.3-0.7
		c-0.1-0.2-0.2-0.4-0.2-0.5c0-0.1-0.1-0.1-0.2-0.1s-0.1,0-0.2,0.1c0,0.1-0.1,0.2-0.2,0.5l-4.2,9.9c-0.2,0.4-0.4,0.7-0.6,1
		c-0.2,0.3-0.5,0.4-1,0.5c-0.1,0-0.2,0-0.3,0c-0.1,0-0.2,0-0.3,0c-0.1,0-0.2,0-0.2,0.1c0,0.1,0.1,0.1,0.4,0.1c0.2,0,0.4,0,0.7,0
		c0.2,0,0.4,0,0.6,0c0.2,0,0.4,0,0.5,0c0.1,0,0.2,0,0.3,0c0,0,0.1,0,0.2,0c0.1,0,0.2,0,0.4,0c0.1,0,0.3,0,0.4,0c0.1,0,0.3,0,0.4,0
		c0.2,0,0.3,0,0.3-0.1c0-0.1-0.1-0.1-0.2-0.1h-0.2c-0.2,0-0.3,0-0.5-0.1s-0.2-0.2-0.2-0.4c0-0.3,0.1-0.7,0.3-1.1l1.1-2.8
		c0-0.1,0.1-0.1,0.2-0.1h4c0.1,0,0.1,0,0.2,0.1l1.7,3.9c0.1,0.1,0.1,0.2,0,0.3S22,41.6,21.9,41.6z M19.9,36.6h-3.5
		c-0.1,0-0.1,0-0.1-0.1l1.6-4.3c0.1-0.2,0.2-0.2,0.3,0l1.8,4.3C20,36.6,20,36.6,19.9,36.6z"/>
	<path class="st0" d="M29.8,32.9c0-0.4,0-0.7,0-0.9c0-0.2,0-0.4,0-0.6s0-0.3,0-0.4c0-0.3,0.1-0.5,0.2-0.6s0.3-0.2,0.5-0.3
		c0.1,0,0.2,0,0.3,0s0.2,0,0.3,0c0.1,0,0.1,0,0.1-0.1c0-0.1-0.1-0.1-0.3-0.1c-0.1,0-0.3,0-0.5,0s-0.4,0-0.6,0c-0.2,0-0.4,0-0.6,0
		c-0.2,0-0.3,0-0.3,0c0,0-0.1,0-0.2,0s-0.3,0-0.5,0s-0.4,0-0.7,0s-0.5,0-0.7,0c-0.2,0-0.3,0-0.3,0.1c0,0.1,0,0.1,0.1,0.1
		c0.1,0,0.2,0,0.3,0c0.1,0,0.2,0,0.3,0c0.3,0.1,0.5,0.1,0.6,0.3c0.1,0.1,0.2,0.3,0.2,0.6c0,0.1,0,0.3,0,0.4c0,0.1,0,0.3,0,0.6
		c0,0.2,0,0.5,0,0.9c0,0.4,0,0.9,0,1.5v2.8c0,0.8,0,1.4,0,2.1c0,0.6,0,1.1-0.1,1.4c0,0.2-0.1,0.4-0.2,0.6c-0.1,0.2-0.2,0.3-0.4,0.3
		c-0.1,0-0.2,0-0.3,0s-0.2,0-0.3,0c-0.1,0-0.1,0-0.1,0.1c0,0.1,0.1,0.1,0.3,0.1c0.1,0,0.3,0,0.5,0c0.2,0,0.4,0,0.6,0
		c0.2,0,0.3,0,0.5,0c0.1,0,0.2,0,0.3,0c0.3,0,0.6,0,0.8,0c0.3,0,0.6,0,1,0c0.4,0,0.8,0,1.3,0c0.5,0,1.1,0,1.7,0c0.2,0,0.4,0,0.6,0
		c0.1,0,0.2,0,0.3-0.1c0.1,0,0.1-0.1,0.2-0.1c0-0.1,0.1-0.1,0.1-0.2c0-0.1,0.1-0.3,0.1-0.4s0.1-0.3,0.1-0.5c0-0.2,0.1-0.3,0.1-0.4
		c0-0.1,0-0.2,0-0.3c0-0.2,0-0.2-0.1-0.2c-0.1,0-0.1,0.1-0.2,0.2c0,0.1-0.1,0.3-0.2,0.5c-0.1,0.2-0.2,0.3-0.3,0.5
		c-0.2,0.2-0.5,0.4-0.9,0.4c-0.4,0-0.8,0.1-1.3,0.1c-0.4,0-0.7,0-0.9,0c-0.3,0-0.5,0-0.6-0.1c-0.2,0-0.3-0.1-0.4-0.1
		c-0.1,0-0.2-0.1-0.3-0.2c-0.2-0.1-0.3-0.5-0.3-1.1s-0.1-1.4-0.1-2.6v-2.8C29.8,33.8,29.8,33.3,29.8,32.9z"/>
	<path class="st0" d="M40.7,32.9c0-0.4,0-0.7,0-0.9c0-0.2,0-0.4,0-0.6s0-0.3,0-0.4c0-0.3,0.1-0.5,0.2-0.6s0.3-0.2,0.5-0.3
		c0.1,0,0.2,0,0.3,0s0.2,0,0.3,0c0.1,0,0.1,0,0.1-0.1c0-0.1-0.1-0.1-0.3-0.1c-0.1,0-0.3,0-0.5,0s-0.4,0-0.6,0c-0.2,0-0.4,0-0.6,0
		c-0.2,0-0.3,0-0.3,0c0,0-0.1,0-0.2,0s-0.3,0-0.5,0s-0.4,0-0.7,0s-0.5,0-0.7,0c-0.2,0-0.3,0-0.3,0.1c0,0.1,0,0.1,0.1,0.1
		c0.1,0,0.2,0,0.3,0c0.1,0,0.2,0,0.3,0c0.3,0.1,0.5,0.1,0.6,0.3c0.1,0.1,0.2,0.3,0.2,0.6c0,0.1,0,0.3,0,0.4c0,0.1,0,0.3,0,0.6
		c0,0.2,0,0.5,0,0.9c0,0.4,0,0.9,0,1.5v2.8c0,0.8,0,1.4,0,2.1c0,0.6,0,1.1-0.1,1.4c0,0.2-0.1,0.4-0.2,0.6c-0.1,0.2-0.2,0.3-0.4,0.3
		c-0.1,0-0.2,0-0.3,0s-0.2,0-0.3,0c-0.1,0-0.1,0-0.1,0.1c0,0.1,0.1,0.1,0.3,0.1c0.1,0,0.3,0,0.5,0c0.2,0,0.4,0,0.6,0
		c0.2,0,0.3,0,0.5,0c0.1,0,0.2,0,0.3,0c0.3,0,0.6,0,0.8,0c0.3,0,0.6,0,1,0c0.4,0,0.8,0,1.3,0c0.5,0,1.1,0,1.7,0c0.2,0,0.4,0,0.6,0
		c0.1,0,0.2,0,0.3-0.1c0.1,0,0.1-0.1,0.2-0.1c0-0.1,0.1-0.1,0.1-0.2c0-0.1,0.1-0.3,0.1-0.4s0.1-0.3,0.1-0.5c0-0.2,0.1-0.3,0.1-0.4
		c0-0.1,0-0.2,0-0.3c0-0.2,0-0.2-0.1-0.2c-0.1,0-0.1,0.1-0.2,0.2c0,0.1-0.1,0.3-0.2,0.5c-0.1,0.2-0.2,0.3-0.3,0.5
		c-0.2,0.2-0.5,0.4-0.9,0.4c-0.4,0-0.8,0.1-1.3,0.1c-0.4,0-0.7,0-0.9,0c-0.3,0-0.5,0-0.6-0.1c-0.2,0-0.3-0.1-0.4-0.1
		c-0.1,0-0.2-0.1-0.3-0.2c-0.2-0.1-0.3-0.5-0.3-1.1s-0.1-1.4-0.1-2.6v-2.8C40.7,33.8,40.7,33.3,40.7,32.9z"/>
	<path class="st0" d="M51.8,30.4c0,0,0.2,0,0.4,0c0.2,0,0.5,0,0.8,0c0.3,0,0.6,0,0.8,0s0.4,0,0.5,0c0.5,0.1,0.8,0.1,1,0.2
		c0.2,0.1,0.3,0.2,0.3,0.3c0,0.1,0.1,0.2,0.1,0.3c0,0.1,0,0.2,0,0.3c0,0.1,0,0.2,0.1,0.2c0,0,0.1,0,0.1-0.1s0-0.1,0-0.1s0-0.1,0-0.2
		c0-0.1,0-0.2,0-0.3c0-0.1,0-0.2,0-0.3c0-0.1,0-0.2,0-0.2c0-0.2,0.1-0.4,0.1-0.5c0-0.1,0.1-0.2,0.1-0.2c0-0.1,0-0.1-0.1-0.1
		c0,0-0.1,0-0.1,0s-0.1,0-0.1,0c-0.2,0-0.4,0.1-0.8,0.1c-0.1,0-0.4,0-0.8,0s-0.9,0-1.4,0c-0.5,0-0.9,0-1.3,0c-0.4,0-0.6,0-0.6,0
		l-0.8,0c-0.2,0-0.4,0-0.7,0s-0.5,0-0.7,0c-0.2,0-0.3,0-0.3,0.1c0,0.1,0,0.1,0.1,0.1c0.1,0,0.2,0,0.3,0c0.1,0,0.2,0,0.3,0
		c0.3,0.1,0.5,0.1,0.6,0.3c0.1,0.1,0.2,0.3,0.2,0.6c0,0.1,0,0.3,0,0.4c0,0.1,0,0.3,0,0.6c0,0.2,0,0.5,0,0.9c0,0.4,0,0.9,0,1.5v2.8
		c0,0.8,0,1.4,0,2.1c0,0.6,0,1.1-0.1,1.4c0,0.2-0.1,0.4-0.2,0.6c-0.1,0.2-0.2,0.3-0.4,0.3c-0.1,0-0.2,0-0.3,0s-0.2,0-0.3,0
		c-0.1,0-0.1,0-0.1,0.1c0,0.1,0.1,0.1,0.3,0.1c0.1,0,0.3,0,0.5,0c0.2,0,0.4,0,0.6,0c0.2,0,0.4,0,0.5,0s0.2,0,0.2,0
		c0.1,0,0.3,0,0.6,0c0.2,0,0.5,0,0.9,0c0.4,0,0.8,0,1.3,0c0.5,0,1.1,0,1.8,0c0.2,0,0.3,0,0.4,0c0.1,0,0.2,0,0.3,0
		c0.1,0,0.1-0.1,0.2-0.1c0-0.1,0.1-0.1,0.1-0.2c0-0.1,0-0.2,0.1-0.4c0-0.2,0-0.3,0.1-0.5c0-0.2,0-0.3,0.1-0.4s0-0.2,0-0.2
		c0-0.1,0-0.1,0-0.2c0-0.1,0-0.1-0.1-0.1c-0.1,0-0.1,0.1-0.2,0.2c-0.1,0.3-0.2,0.6-0.3,0.8c-0.1,0.2-0.3,0.3-0.6,0.4
		c-0.2,0.1-0.5,0.1-0.9,0.2s-0.6,0-0.9,0c-0.5,0-0.8,0-1.1,0c-0.3,0-0.5-0.1-0.6-0.2c-0.2-0.1-0.3-0.2-0.3-0.4
		c-0.1-0.2-0.1-0.4-0.1-0.7c0-0.1,0-0.2,0-0.5c0-0.2,0-0.5,0-0.8s0-0.6,0-0.8c0-0.3,0-0.5,0-0.6v-1.4c0-0.1,0-0.1,0.1-0.1
		c0.1,0,0.2,0,0.5,0c0.2,0,0.5,0,0.8,0c0.3,0,0.5,0,0.8,0c0.3,0,0.5,0,0.6,0c0.4,0,0.6,0.1,0.7,0.2c0.1,0.1,0.2,0.2,0.2,0.3
		c0,0.1,0.1,0.2,0.1,0.3c0,0.1,0,0.2,0,0.2c0,0.1,0,0.1,0.1,0.1c0.1,0,0.1,0,0.1-0.1s0-0.1,0-0.2c0,0,0-0.1,0-0.2c0-0.1,0-0.2,0-0.3
		c0-0.1,0-0.2,0-0.3c0-0.1,0-0.2,0-0.3c0-0.3,0.1-0.5,0.1-0.6c0-0.1,0.1-0.2,0.1-0.3c0-0.1,0-0.1-0.1-0.1c0,0-0.1,0.1-0.3,0.2
		c-0.1,0.1-0.2,0.1-0.3,0.2c-0.1,0-0.3,0-0.5,0.1c-0.1,0-0.3,0-0.6,0s-0.6,0-0.9,0c-0.3,0-0.6,0-0.9,0c-0.3,0-0.4,0-0.5,0
		c-0.1,0-0.1-0.1-0.1-0.2v-4.4C51.7,30.5,51.7,30.4,51.8,30.4z"/>
	<path class="st0" d="M62.7,31.2c0.3-0.2,0.7-0.4,1-0.6c0.4-0.1,0.7-0.2,1-0.3c0.3-0.1,0.7-0.1,1-0.1s0.6,0,0.9,0
		c0.6,0,1.1,0,1.6,0.1c0.5,0.1,0.9,0.2,1.3,0.3c0.4,0.1,0.7,0.3,0.9,0.4c0.2,0.2,0.4,0.3,0.5,0.5c0.1,0.2,0.2,0.4,0.3,0.6
		c0.1,0.2,0.1,0.4,0.1,0.5c0,0.2,0.1,0.2,0.1,0.2s0.1,0,0.1-0.1c0,0,0-0.1,0-0.3c0-0.4,0-0.7,0-1c0-0.3,0-0.5,0-0.7
		c0-0.2,0-0.3,0-0.4c0-0.1,0-0.2,0-0.2c0,0,0-0.1,0-0.1c0,0-0.1,0-0.2-0.1c-0.2,0-0.5,0-0.8-0.1c-0.3,0-0.5-0.1-0.7-0.1
		c-0.1,0-0.2,0-0.4-0.1c-0.2,0-0.4-0.1-0.7-0.1c-0.3,0-0.5-0.1-0.8-0.1s-0.6,0-0.9,0c-0.4,0-0.7,0-1.1,0c-0.4,0-0.8,0.1-1.2,0.1
		c-0.4,0.1-0.8,0.2-1.3,0.3c-0.4,0.1-0.9,0.3-1.3,0.5c-0.4,0.2-0.8,0.5-1.2,0.8s-0.7,0.7-1,1.2c-0.3,0.4-0.5,0.9-0.7,1.5
		s-0.2,1.1-0.2,1.8c0,0.5,0.1,1,0.2,1.4c0.1,0.5,0.3,0.9,0.5,1.3c0.2,0.4,0.4,0.7,0.7,1.1c0.3,0.3,0.5,0.6,0.8,0.8
		c0.5,0.4,1.1,0.7,1.6,0.9c0.6,0.2,1.1,0.4,1.7,0.5s1.1,0.2,1.5,0.2c0.5,0,0.9,0,1.3,0c0.3,0,0.6,0,0.9,0c0.3,0,0.7-0.1,1-0.1
		c0.4-0.1,0.7-0.1,1-0.2c0.3-0.1,0.7-0.2,1-0.3c0,0,0.1-0.1,0.1-0.1c0,0,0.1-0.1,0.1-0.1c0-0.1,0-0.1,0-0.2c0-0.1,0-0.2,0-0.4v-1.8
		c0-0.3,0-0.6,0-0.9c0-0.3,0-0.5,0-0.8c0-0.3,0.1-0.5,0.2-0.6c0.1-0.1,0.3-0.2,0.5-0.3c0.1,0,0.2,0,0.3,0c0.1,0,0.1,0,0.2,0
		c0.1,0,0.1,0,0.1-0.1c0-0.1-0.1-0.1-0.3-0.1c-0.1,0-0.3,0-0.5,0s-0.4,0-0.6,0c-0.2,0-0.3,0-0.5,0c-0.1,0-0.2,0-0.2,0
		c0,0-0.1,0-0.2,0c-0.1,0-0.3,0-0.5,0c-0.2,0-0.4,0-0.7,0s-0.5,0-0.7,0c-0.2,0-0.3,0-0.3,0.1c0,0.1,0,0.1,0.1,0.1c0.1,0,0.2,0,0.3,0
		c0.1,0,0.2,0,0.3,0c0.2,0,0.3,0.1,0.4,0.2c0.1,0.1,0.2,0.1,0.2,0.3c0.1,0.1,0.1,0.3,0.1,0.5c0,0.2,0,0.5,0,0.8v2.7
		c0,0.3-0.1,0.4-0.4,0.6c-0.1,0.1-0.3,0.1-0.4,0.2c-0.2,0-0.4,0.1-0.5,0.1s-0.4,0-0.6,0.1c-0.2,0-0.4,0-0.5,0
		c-0.8,0-1.7-0.1-2.5-0.4c-0.8-0.3-1.6-0.7-2.3-1.3c-0.2-0.1-0.4-0.3-0.6-0.6c-0.2-0.3-0.4-0.6-0.6-1c-0.2-0.4-0.4-0.8-0.5-1.3
		s-0.2-1-0.2-1.6c0-0.9,0.2-1.8,0.5-2.4C61.7,32.1,62.2,31.6,62.7,31.2z"/>
	<path class="st0" d="M84.4,34.5c0.3-0.6,0.5-1.2,0.5-1.8c0-0.3,0-0.5-0.1-0.8s-0.2-0.4-0.3-0.6c-0.1-0.2-0.3-0.3-0.4-0.5
		c-0.1-0.1-0.3-0.2-0.4-0.3c-0.5-0.3-1-0.5-1.6-0.6c-0.6-0.1-1.2-0.1-1.8-0.1c-0.1,0-0.3,0-0.6,0s-0.4,0-0.7,0c-0.2,0-0.4,0-0.6,0
		c-0.2,0-0.3,0-0.3,0c0,0-0.1,0-0.2,0s-0.3,0-0.5,0s-0.4,0-0.7,0s-0.5,0-0.7,0c-0.2,0-0.3,0-0.3,0.1c0,0.1,0,0.1,0.1,0.1
		c0.1,0,0.2,0,0.3,0c0.1,0,0.2,0,0.3,0c0.3,0.1,0.5,0.1,0.6,0.3c0.1,0.1,0.2,0.3,0.2,0.6c0,0.1,0,0.3,0,0.4c0,0.1,0,0.3,0,0.6
		c0,0.2,0,0.5,0,0.9c0,0.4,0,0.9,0,1.5v2.8c0,0.8,0,1.4,0,2.1c0,0.6,0,1.1-0.1,1.4c0,0.2-0.1,0.4-0.2,0.6c-0.1,0.2-0.2,0.3-0.4,0.3
		c-0.1,0-0.2,0-0.3,0s-0.2,0-0.3,0c-0.1,0-0.1,0-0.1,0.1c0,0.1,0.1,0.1,0.3,0.1c0.1,0,0.3,0,0.5,0c0.2,0,0.4,0,0.6,0
		c0.2,0,0.4,0,0.7,0c0,0,0.1,0,0.2,0c0.1,0,0.3,0,0.5,0c0.2,0,0.5,0,0.7,0c0.3,0,0.5,0,0.8,0c0.2,0,0.3,0,0.3-0.1
		c0-0.1,0-0.1-0.1-0.1c-0.1,0-0.2,0-0.4,0c-0.2,0-0.3,0-0.5,0c-0.3,0-0.5-0.1-0.6-0.3s-0.1-0.4-0.2-0.6c0-0.3-0.1-0.8-0.1-1.4
		c0-0.6,0-1.3,0-2.1v-0.4c0-0.1,0-0.1,0.1-0.1l2.3,0c0.1,0,0.2,0,0.2,0.1c0.1,0.1,0.2,0.2,0.4,0.4s0.3,0.4,0.5,0.6
		c0.2,0.2,0.4,0.4,0.6,0.7c0.2,0.2,0.4,0.5,0.6,0.7c0.5,0.6,1,1.1,1.3,1.5c0.4,0.4,0.8,0.7,1.1,0.9c0.2,0.1,0.5,0.2,0.8,0.2
		c0.3,0,0.7,0.1,1.2,0.1h1.3c0.2,0,0.3,0,0.4,0c0.1,0,0.1-0.1,0.1-0.1c0-0.1-0.1-0.1-0.2-0.1c-0.1,0-0.2,0-0.3,0c-0.1,0-0.3,0-0.4,0
		c-0.2,0-0.5-0.1-0.9-0.3c-0.4-0.1-0.8-0.4-1.3-0.9c-0.5-0.5-1.1-1.1-1.8-1.8s-1.3-1.5-2.1-2.3C83.5,35.7,84.1,35.1,84.4,34.5z
		 M83,35c-0.2,0.4-0.5,0.7-0.8,0.9c-0.2,0.1-0.4,0.2-0.7,0.2c-0.2,0-0.5,0.1-0.7,0.1c-0.4,0-0.8,0-1.2-0.1c-0.4,0-0.6-0.1-0.8-0.2
		c-0.1,0-0.1-0.1-0.1-0.2v-5.2c0-0.1,0-0.2,0.1-0.2c0.1,0,0.3,0,0.5-0.1s0.5,0,0.8,0c1,0,1.8,0.3,2.3,0.8c0.6,0.6,0.8,1.3,0.8,2.3
		C83.3,34.1,83.2,34.6,83,35z"/>
	<path class="st0" d="M91.1,40c0.6,0.6,1.3,1.1,2.2,1.5s2,0.6,3.3,0.6c1.1,0,2.1-0.2,3-0.5s1.7-0.8,2.3-1.4c0.6-0.6,1.1-1.3,1.5-2.1
		c0.4-0.8,0.5-1.6,0.5-2.5c0-0.9-0.2-1.8-0.6-2.5s-0.9-1.4-1.5-1.9c-0.6-0.5-1.4-0.9-2.3-1.2c-0.9-0.3-1.8-0.4-2.9-0.4
		c-0.8,0-1.6,0.1-2.3,0.3c-0.7,0.2-1.3,0.4-1.8,0.8c-0.5,0.3-1,0.7-1.4,1.1c-0.4,0.4-0.7,0.9-1,1.3c-0.3,0.5-0.4,0.9-0.6,1.4
		c-0.1,0.5-0.2,0.9-0.2,1.4c0,0.7,0.1,1.5,0.4,2.2S90.5,39.4,91.1,40z M91.5,33.1c0.3-0.7,0.6-1.2,1.1-1.6s1-0.8,1.7-1
		c0.7-0.2,1.4-0.3,2.2-0.3c0.7,0,1.4,0.1,2.1,0.4c0.7,0.3,1.3,0.6,1.8,1.1c0.5,0.5,0.9,1.1,1.2,1.8s0.5,1.6,0.5,2.5
		c0,1.2-0.2,2.1-0.6,2.8c-0.4,0.7-0.8,1.3-1.4,1.7c-0.5,0.4-1.1,0.7-1.7,0.8c-0.6,0.1-1.1,0.2-1.5,0.2c-0.8,0-1.6-0.1-2.3-0.4
		c-0.7-0.3-1.3-0.7-1.9-1.2s-1-1.2-1.3-1.9c-0.3-0.8-0.5-1.6-0.5-2.5C91.1,34.5,91.3,33.7,91.5,33.1z"/>
	<path class="st0" d="M120.3,33.8c0.2-0.2,0.3-0.5,0.4-0.7c0.1-0.3,0.1-0.6,0.1-0.9c0-0.2,0-0.4-0.1-0.7c-0.1-0.3-0.3-0.5-0.6-0.8
		c-0.3-0.2-0.7-0.5-1.1-0.6s-1.1-0.3-1.8-0.3c-0.4,0-0.8,0-1.2,0s-0.6,0-0.8,0c0,0-0.1,0-0.2,0c-0.1,0-0.3,0-0.5,0s-0.4,0-0.7,0
		c-0.2,0-0.5,0-0.7,0c-0.2,0-0.3,0-0.3,0.1c0,0.1,0,0.1,0.1,0.1c0.1,0,0.2,0,0.3,0s0.2,0,0.3,0c0.3,0.1,0.5,0.1,0.6,0.3
		c0.1,0.1,0.2,0.3,0.2,0.6c0,0.1,0,0.3,0,0.4c0,0.1,0,0.3,0,0.6c0,0.2,0,0.5,0,0.9c0,0.4,0,0.9,0,1.5v2.8c0,0.8,0,1.4,0,2.1
		c0,0.6,0,1.1-0.1,1.4c0,0.2-0.1,0.4-0.2,0.6c-0.1,0.2-0.2,0.3-0.4,0.3c-0.1,0-0.2,0-0.3,0s-0.2,0-0.3,0c-0.1,0-0.1,0-0.1,0.1
		c0,0.1,0.1,0.1,0.3,0.1c0.1,0,0.3,0,0.5,0c0.2,0,0.4,0,0.6,0c0.2,0,0.4,0,0.5,0s0.2,0,0.2,0c0,0,0.2,0,0.4,0c0.2,0,0.5,0,0.7,0
		c0.3,0,0.5,0,0.8,0c0.3,0,0.4,0,0.5,0c0.8,0,1.5-0.1,2.1-0.3s1.1-0.5,1.5-0.8c0.4-0.3,0.7-0.7,0.9-1.1s0.3-0.8,0.3-1.3
		c0-0.5-0.1-0.9-0.3-1.3s-0.5-0.7-0.8-1c-0.3-0.3-0.7-0.5-1-0.7c-0.4-0.2-0.7-0.3-1.1-0.4c0.2-0.2,0.4-0.4,0.6-0.6
		C120,34.3,120.2,34.1,120.3,33.8z M119.8,36.7c0.2,0.3,0.4,0.5,0.5,0.8s0.2,0.6,0.3,0.9c0.1,0.3,0.1,0.5,0.1,0.8
		c0,0.4-0.1,0.8-0.3,1.1s-0.4,0.5-0.7,0.7c-0.3,0.2-0.5,0.3-0.8,0.4c-0.3,0.1-0.6,0.1-0.8,0.1c-0.1,0-0.2,0-0.3,0
		c-0.1,0-0.3,0-0.4,0c-0.2,0-0.3,0-0.5-0.1c-0.2,0-0.3-0.1-0.4-0.1c-0.1-0.1-0.3-0.1-0.3-0.2s-0.1-0.1-0.2-0.2
		c0-0.1-0.1-0.2-0.1-0.3c0-0.1,0-0.3,0-0.5c0-0.1,0-0.2,0-0.5c0-0.2,0-0.5,0-0.9c0-0.3,0-0.7,0-1.1s0-0.7,0-1v-0.9
		c0-0.1,0-0.1,0.1-0.1s0.2,0,0.3,0c0.1,0,0.3,0,0.4,0c0.1,0,0.3,0,0.4,0c0.1,0,0.2,0,0.3,0c0.2,0,0.5,0.1,0.7,0.1
		c0.2,0.1,0.5,0.2,0.8,0.4C119.3,36.2,119.6,36.4,119.8,36.7z M119.3,33.9c-0.1,0.3-0.3,0.5-0.5,0.7c-0.1,0.1-0.2,0.2-0.3,0.2
		c-0.1,0.1-0.2,0.1-0.3,0.1c-0.1,0-0.3,0.1-0.4,0.1c-0.2,0-0.4,0-0.6,0c-0.3,0-0.6,0-0.8,0c-0.2,0-0.3,0-0.4,0
		c-0.1,0-0.1-0.1-0.1-0.2v-4.3c0-0.1,0.1-0.1,0.2-0.2c0.1,0,0.3-0.1,0.5-0.1c0.2,0,0.3,0,0.4,0c0.5,0,0.8,0.1,1.2,0.2
		c0.3,0.2,0.6,0.4,0.8,0.6c0.2,0.3,0.3,0.6,0.4,0.9c0.1,0.3,0.1,0.7,0.1,1S119.4,33.6,119.3,33.9z"/>
	<path class="st0" d="M127.6,32.9c0-0.4,0-0.7,0-0.9c0-0.2,0-0.4,0-0.6c0-0.1,0-0.3,0-0.4c0-0.3,0.1-0.5,0.2-0.6
		c0.1-0.1,0.3-0.2,0.5-0.3c0.1,0,0.2,0,0.3,0c0.1,0,0.1,0,0.2,0c0.1,0,0.1,0,0.1-0.1c0-0.1-0.1-0.1-0.3-0.1c-0.1,0-0.3,0-0.5,0
		c-0.2,0-0.4,0-0.6,0s-0.4,0-0.5,0c-0.1,0-0.2,0-0.3,0s-0.1,0-0.3,0c-0.2,0-0.3,0-0.5,0s-0.4,0-0.6,0c-0.2,0-0.4,0-0.7,0
		c-0.2,0-0.3,0-0.3,0.1c0,0.1,0,0.1,0.1,0.1c0.1,0,0.2,0,0.3,0c0.1,0,0.2,0,0.3,0c0.3,0.1,0.5,0.1,0.6,0.3c0.1,0.1,0.2,0.3,0.2,0.6
		c0,0.1,0,0.3,0,0.4c0,0.1,0,0.3,0,0.6c0,0.2,0,0.5,0,0.9c0,0.4,0,0.9,0,1.5v2.3c0,0.6,0,1.1,0.1,1.5c0.1,0.4,0.2,0.8,0.3,1.2
		s0.3,0.6,0.5,0.9s0.4,0.5,0.6,0.6c0.3,0.3,0.7,0.5,1.1,0.6c0.4,0.2,0.7,0.3,1.1,0.3c0.4,0.1,0.7,0.1,1,0.1c0.3,0,0.5,0,0.7,0
		c0.3,0,0.6,0,0.9,0s0.6-0.1,0.9-0.2s0.6-0.2,1-0.4s0.7-0.4,1-0.6c0.4-0.3,0.7-0.6,0.9-1s0.4-0.8,0.5-1.2c0.1-0.4,0.2-0.9,0.2-1.3
		c0-0.4,0.1-0.9,0.1-1.3v-1.7c0-0.6,0-1.1,0-1.5c0-0.4,0-0.7,0-0.9c0-0.2,0-0.4,0-0.6c0-0.1,0-0.3,0-0.4c0-0.3,0.1-0.5,0.2-0.6
		c0.1-0.1,0.3-0.2,0.5-0.3c0.1,0,0.2,0,0.3,0c0.1,0,0.1,0,0.2,0c0.1,0,0.1,0,0.1-0.1c0-0.1-0.1-0.1-0.3-0.1c-0.1,0-0.3,0-0.5,0
		s-0.3,0-0.5,0s-0.3,0-0.4,0c-0.1,0-0.2,0-0.2,0c0,0-0.1,0-0.2,0c-0.1,0-0.3,0-0.5,0s-0.4,0-0.6,0s-0.4,0-0.6,0
		c-0.2,0-0.3,0-0.3,0.1c0,0.1,0,0.1,0.1,0.1c0.1,0,0.2,0,0.3,0s0.2,0,0.3,0c0.3,0.1,0.5,0.1,0.6,0.3c0.1,0.1,0.2,0.3,0.2,0.6
		c0,0.1,0,0.3,0,0.4c0,0.1,0,0.3,0,0.6c0,0.2,0,0.5,0,0.9c0,0.4,0,0.9,0,1.5v2c0,0.8-0.1,1.6-0.2,2.2c-0.1,0.7-0.4,1.2-0.9,1.7
		c-0.3,0.3-0.8,0.6-1.3,0.8c-0.5,0.2-1.1,0.3-1.6,0.3c-0.5,0-1-0.1-1.5-0.2s-0.9-0.3-1.3-0.7c-0.2-0.2-0.4-0.3-0.6-0.6
		c-0.2-0.2-0.3-0.5-0.4-0.8s-0.2-0.7-0.3-1.1s-0.1-0.9-0.1-1.5v-2.2C127.6,33.8,127.6,33.3,127.6,32.9z"/>
	<path class="st0" d="M144.1,30.4l2.8,0c0.4,0,0.6,0.1,0.8,0.2c0.2,0.1,0.3,0.2,0.4,0.3c0.1,0.1,0.1,0.2,0.1,0.3c0,0.1,0,0.2,0,0.3
		c0,0.1,0,0.2,0.1,0.2c0,0,0.1,0,0.1-0.1c0,0,0-0.1,0-0.1c0,0,0-0.1,0-0.2s0-0.2,0-0.3c0-0.1,0-0.2,0-0.3c0-0.1,0-0.2,0-0.2
		c0-0.2,0.1-0.4,0.1-0.5s0.1-0.2,0.1-0.2c0-0.1,0-0.1-0.1-0.1c0,0-0.1,0-0.1,0s-0.1,0-0.1,0.1c-0.1,0-0.2,0-0.3,0
		c-0.1,0-0.3,0-0.5,0c-0.1,0-0.2,0-0.5,0c-0.2,0-0.5,0-0.8,0c-0.3,0-0.6,0-1,0c-0.4,0-0.7,0-1,0c-0.3,0-0.6,0-0.8,0
		c-0.2,0-0.4,0-0.4,0l-0.8,0c-0.2,0-0.4,0-0.7,0c-0.2,0-0.5,0-0.7,0c-0.2,0-0.3,0-0.3,0.1c0,0.1,0,0.1,0.1,0.1c0.1,0,0.2,0,0.3,0
		s0.2,0,0.3,0c0.3,0.1,0.5,0.1,0.6,0.3c0.1,0.1,0.2,0.3,0.2,0.6c0,0.1,0,0.3,0,0.4c0,0.1,0,0.3,0,0.6c0,0.2,0,0.5,0,0.9
		c0,0.4,0,0.9,0,1.5v2.8c0,0.8,0,1.4,0,2.1c0,0.6,0,1.1-0.1,1.4c0,0.2-0.1,0.4-0.2,0.6c-0.1,0.2-0.2,0.3-0.4,0.3c-0.1,0-0.2,0-0.3,0
		s-0.2,0-0.3,0c-0.1,0-0.1,0-0.1,0.1c0,0.1,0.1,0.1,0.3,0.1c0.1,0,0.3,0,0.5,0c0.2,0,0.4,0,0.6,0c0.2,0,0.3,0,0.5,0
		c0.1,0,0.2,0,0.2,0s0.1,0,0.2,0c0.1,0,0.3,0,0.5,0c0.2,0,0.5,0,0.7,0c0.3,0,0.5,0,0.8,0c0.2,0,0.3,0,0.3-0.1c0-0.1,0-0.1-0.1-0.1
		c-0.1,0-0.2,0-0.4,0c-0.2,0-0.3,0-0.5,0c-0.3,0-0.5-0.1-0.6-0.3c-0.1-0.2-0.1-0.4-0.2-0.6c0-0.3-0.1-0.8-0.1-1.4c0-0.6,0-1.3,0-2.1
		v-1.4c0-0.1,0-0.1,0.1-0.1c0.1,0,0.2,0,0.5,0s0.5,0,0.8,0s0.6,0,0.9,0c0.3,0,0.5,0,0.6,0c0.3,0,0.5,0.1,0.7,0.2
		c0.2,0.1,0.3,0.2,0.3,0.4c0,0.1,0.1,0.2,0.1,0.3c0,0.1,0,0.2,0,0.3c0,0.1,0,0.1,0.1,0.1c0.1,0,0.1,0,0.1-0.1c0-0.1,0-0.1,0-0.2
		c0,0,0-0.1,0-0.2c0-0.1,0-0.2,0-0.3c0-0.1,0-0.2,0-0.3c0-0.1,0-0.2,0-0.3c0-0.3,0.1-0.5,0.1-0.6c0-0.1,0.1-0.2,0.1-0.3
		c0-0.1,0-0.1-0.1-0.1c0,0-0.1,0-0.1,0c0,0-0.1,0.1-0.1,0.1c-0.1,0.1-0.2,0.2-0.3,0.2c-0.1,0-0.3,0.1-0.5,0.1c-0.1,0-0.3,0-0.4,0
		c-0.1,0-0.3,0-0.4,0l-2.4,0c-0.1,0-0.1,0-0.1-0.1v-4.4C143.9,30.5,144,30.4,144.1,30.4z"/>
	<path class="st0" d="M155,30.4l2.8,0c0.4,0,0.6,0.1,0.8,0.2c0.2,0.1,0.3,0.2,0.4,0.3c0.1,0.1,0.1,0.2,0.1,0.3c0,0.1,0,0.2,0,0.3
		c0,0.1,0,0.2,0.1,0.2c0,0,0.1,0,0.1-0.1c0,0,0-0.1,0-0.1c0,0,0-0.1,0-0.2s0-0.2,0-0.3c0-0.1,0-0.2,0-0.3c0-0.1,0-0.2,0-0.2
		c0-0.2,0.1-0.4,0.1-0.5s0.1-0.2,0.1-0.2c0-0.1,0-0.1-0.1-0.1c0,0-0.1,0-0.1,0s-0.1,0-0.1,0.1c-0.1,0-0.2,0-0.3,0
		c-0.1,0-0.3,0-0.5,0c-0.1,0-0.2,0-0.5,0c-0.2,0-0.5,0-0.8,0c-0.3,0-0.6,0-1,0c-0.4,0-0.7,0-1,0c-0.3,0-0.6,0-0.8,0
		c-0.2,0-0.4,0-0.4,0l-0.8,0c-0.2,0-0.4,0-0.7,0c-0.2,0-0.5,0-0.7,0c-0.2,0-0.3,0-0.3,0.1c0,0.1,0,0.1,0.1,0.1c0.1,0,0.2,0,0.3,0
		s0.2,0,0.3,0c0.3,0.1,0.5,0.1,0.6,0.3c0.1,0.1,0.2,0.3,0.2,0.6c0,0.1,0,0.3,0,0.4c0,0.1,0,0.3,0,0.6c0,0.2,0,0.5,0,0.9
		c0,0.4,0,0.9,0,1.5v2.8c0,0.8,0,1.4,0,2.1c0,0.6,0,1.1-0.1,1.4c0,0.2-0.1,0.4-0.2,0.6c-0.1,0.2-0.2,0.3-0.4,0.3c-0.1,0-0.2,0-0.3,0
		s-0.2,0-0.3,0c-0.1,0-0.1,0-0.1,0.1c0,0.1,0.1,0.1,0.3,0.1c0.1,0,0.3,0,0.5,0c0.2,0,0.4,0,0.6,0c0.2,0,0.3,0,0.5,0
		c0.1,0,0.2,0,0.2,0s0.1,0,0.2,0c0.1,0,0.3,0,0.5,0c0.2,0,0.5,0,0.7,0c0.3,0,0.5,0,0.8,0c0.2,0,0.3,0,0.3-0.1c0-0.1,0-0.1-0.1-0.1
		c-0.1,0-0.2,0-0.4,0c-0.2,0-0.3,0-0.5,0c-0.3,0-0.5-0.1-0.6-0.3c-0.1-0.2-0.1-0.4-0.2-0.6c0-0.3-0.1-0.8-0.1-1.4c0-0.6,0-1.3,0-2.1
		v-1.4c0-0.1,0-0.1,0.1-0.1c0.1,0,0.2,0,0.5,0s0.5,0,0.8,0s0.6,0,0.9,0c0.3,0,0.5,0,0.6,0c0.3,0,0.5,0.1,0.7,0.2
		c0.2,0.1,0.3,0.2,0.3,0.4c0,0.1,0.1,0.2,0.1,0.3c0,0.1,0,0.2,0,0.3c0,0.1,0,0.1,0.1,0.1c0.1,0,0.1,0,0.1-0.1c0-0.1,0-0.1,0-0.2
		c0,0,0-0.1,0-0.2c0-0.1,0-0.2,0-0.3c0-0.1,0-0.2,0-0.3c0-0.1,0-0.2,0-0.3c0-0.3,0.1-0.5,0.1-0.6c0-0.1,0.1-0.2,0.1-0.3
		c0-0.1,0-0.1-0.1-0.1c0,0-0.1,0-0.1,0c0,0-0.1,0.1-0.1,0.1c-0.1,0.1-0.2,0.2-0.3,0.2c-0.1,0-0.3,0.1-0.5,0.1c-0.1,0-0.3,0-0.4,0
		c-0.1,0-0.3,0-0.4,0l-2.4,0c-0.1,0-0.1,0-0.1-0.1v-4.4C154.9,30.5,154.9,30.4,155,30.4z"/>
	<path class="st0" d="M165.9,30.4c0,0,0.2,0,0.4,0c0.2,0,0.5,0,0.8,0c0.3,0,0.6,0,0.8,0c0.3,0,0.4,0,0.5,0c0.5,0.1,0.8,0.1,1,0.2
		c0.2,0.1,0.3,0.2,0.3,0.3c0,0.1,0.1,0.2,0.1,0.3c0,0.1,0,0.2,0,0.3c0,0.1,0,0.2,0.1,0.2c0,0,0.1,0,0.1-0.1s0-0.1,0-0.1
		c0,0,0-0.1,0-0.2s0-0.2,0-0.3c0-0.1,0-0.2,0-0.3c0-0.1,0-0.2,0-0.2c0-0.2,0.1-0.4,0.1-0.5s0.1-0.2,0.1-0.2c0-0.1,0-0.1-0.1-0.1
		c0,0-0.1,0-0.1,0c0,0-0.1,0-0.1,0c-0.2,0-0.4,0.1-0.8,0.1c-0.1,0-0.4,0-0.8,0c-0.4,0-0.9,0-1.4,0c-0.5,0-0.9,0-1.3,0
		c-0.4,0-0.6,0-0.6,0l-0.8,0c-0.2,0-0.4,0-0.7,0c-0.2,0-0.5,0-0.7,0c-0.2,0-0.3,0-0.3,0.1c0,0.1,0,0.1,0.1,0.1c0.1,0,0.2,0,0.3,0
		s0.2,0,0.3,0c0.3,0.1,0.5,0.1,0.6,0.3c0.1,0.1,0.2,0.3,0.2,0.6c0,0.1,0,0.3,0,0.4c0,0.1,0,0.3,0,0.6c0,0.2,0,0.5,0,0.9
		c0,0.4,0,0.9,0,1.5v2.8c0,0.8,0,1.4,0,2.1c0,0.6,0,1.1-0.1,1.4c0,0.2-0.1,0.4-0.2,0.6c-0.1,0.2-0.2,0.3-0.4,0.3c-0.1,0-0.2,0-0.3,0
		s-0.2,0-0.3,0c-0.1,0-0.1,0-0.1,0.1c0,0.1,0.1,0.1,0.3,0.1c0.1,0,0.3,0,0.5,0c0.2,0,0.4,0,0.6,0c0.2,0,0.4,0,0.5,0s0.2,0,0.2,0
		c0.1,0,0.3,0,0.6,0c0.2,0,0.5,0,0.9,0c0.4,0,0.8,0,1.3,0c0.5,0,1.1,0,1.8,0c0.2,0,0.3,0,0.4,0c0.1,0,0.2,0,0.3,0
		c0.1,0,0.1-0.1,0.2-0.1c0-0.1,0.1-0.1,0.1-0.2c0-0.1,0-0.2,0.1-0.4c0-0.2,0-0.3,0.1-0.5c0-0.2,0-0.3,0.1-0.4s0-0.2,0-0.2
		c0-0.1,0-0.1,0-0.2c0-0.1,0-0.1-0.1-0.1c-0.1,0-0.1,0.1-0.2,0.2c-0.1,0.3-0.2,0.6-0.3,0.8c-0.1,0.2-0.3,0.3-0.6,0.4
		c-0.2,0.1-0.5,0.1-0.9,0.2s-0.6,0-0.9,0c-0.5,0-0.8,0-1.1,0c-0.3,0-0.5-0.1-0.6-0.2c-0.2-0.1-0.3-0.2-0.3-0.4s-0.1-0.4-0.1-0.7
		c0-0.1,0-0.2,0-0.5c0-0.2,0-0.5,0-0.8s0-0.6,0-0.8c0-0.3,0-0.5,0-0.6v-1.4c0-0.1,0-0.1,0.1-0.1c0.1,0,0.2,0,0.5,0
		c0.2,0,0.5,0,0.8,0c0.3,0,0.5,0,0.8,0s0.5,0,0.6,0c0.4,0,0.6,0.1,0.7,0.2s0.2,0.2,0.2,0.3c0,0.1,0.1,0.2,0.1,0.3c0,0.1,0,0.2,0,0.2
		c0,0.1,0,0.1,0.1,0.1c0.1,0,0.1,0,0.1-0.1s0-0.1,0-0.2c0,0,0-0.1,0-0.2c0-0.1,0-0.2,0-0.3c0-0.1,0-0.2,0-0.3c0-0.1,0-0.2,0-0.3
		c0-0.3,0.1-0.5,0.1-0.6c0-0.1,0.1-0.2,0.1-0.3c0-0.1,0-0.1-0.1-0.1c0,0-0.1,0.1-0.3,0.2c-0.1,0.1-0.2,0.1-0.3,0.2
		c-0.1,0-0.3,0-0.5,0.1c-0.1,0-0.3,0-0.6,0c-0.3,0-0.6,0-0.9,0c-0.3,0-0.6,0-0.9,0s-0.4,0-0.5,0c-0.1,0-0.1-0.1-0.1-0.2v-4.4
		C165.8,30.5,165.8,30.4,165.9,30.4z"/>
	<path class="st0" d="M181.8,30.5c0.4,0,0.8,0,1.1,0.1s0.5,0.1,0.7,0.2c0.2,0.1,0.3,0.2,0.4,0.3c0.1,0.1,0.1,0.2,0.1,0.3l0,0.2
		c0,0.1,0,0.2,0,0.2s0.1,0,0.1,0c0.1,0,0.1-0.1,0.1-0.2c0,0,0-0.1,0-0.3c0-0.1,0-0.3,0-0.5c0-0.2,0-0.4,0-0.5c0-0.2,0-0.3,0-0.4
		c0-0.1,0-0.1,0-0.1c0,0,0-0.1-0.1-0.1c0,0-0.1,0-0.2,0s-0.2,0-0.3,0.1c-0.1,0-0.3,0-0.5,0.1s-0.5,0-0.8,0h-6.9c-0.1,0-0.3,0-0.6,0
		c-0.3,0-0.6,0-0.8-0.1c-0.2,0-0.4-0.1-0.5-0.1s-0.2-0.1-0.3-0.1c0,0-0.1,0-0.1,0.1c0,0.1-0.1,0.1-0.1,0.2c0,0,0,0.1-0.1,0.3
		c0,0.2-0.1,0.3-0.1,0.5c0,0.2-0.1,0.4-0.1,0.5c0,0.2-0.1,0.3-0.1,0.3c0,0.1,0,0.1,0.1,0.1c0.1,0,0.1-0.1,0.2-0.2
		c0-0.1,0.1-0.1,0.1-0.2s0.1-0.2,0.2-0.3c0.1-0.1,0.2-0.2,0.3-0.2c0.1-0.1,0.2-0.1,0.4-0.2c0.1,0,0.3-0.1,0.5-0.1c0.2,0,0.4,0,0.7,0
		l2.7,0v6.7c0,0.8,0,1.4,0,2.1c0,0.6,0,1.1-0.1,1.4c0,0.2-0.1,0.4-0.2,0.6c-0.1,0.2-0.2,0.3-0.4,0.3c-0.1,0-0.2,0-0.3,0
		s-0.2,0-0.3,0c-0.1,0-0.1,0-0.1,0.1c0,0.1,0.1,0.1,0.3,0.1c0.1,0,0.3,0,0.5,0c0.2,0,0.4,0,0.6,0c0.2,0,0.3,0,0.5,0
		c0.1,0,0.2,0,0.2,0s0.1,0,0.2,0c0.1,0,0.3,0,0.5,0c0.2,0,0.5,0,0.7,0c0.3,0,0.5,0,0.8,0c0.2,0,0.3,0,0.3-0.1c0-0.1,0-0.1-0.1-0.1
		c-0.1,0-0.2,0-0.4,0c-0.2,0-0.3,0-0.5,0c-0.3,0-0.5-0.1-0.6-0.3s-0.1-0.4-0.2-0.6c0-0.3-0.1-0.8-0.1-1.4c0-0.6,0-1.3,0-2.1v-6.7
		L181.8,30.5z"/>
</g>
</svg>
